<svg xmlns="http://www.w3.org/2000/svg" width="258" height="204" viewBox="0 0 258 204" fill="none"><path d="M34.5522 26.9795C40.3725 22.6903 47.1032 19.7336 52.8965 15.5107C53.0977 15.3634 53.2866 15.2236 53.4731 15.0837C53.4388 15.069 53.4019 15.0543 53.3676 15.0395C48.9337 13.0765 44.8948 9.89157 40.1566 8.67696C35.443 7.46972 30.1821 8.6377 26.4181 11.7245C20.9609 16.2026 19.209 23.6718 17.7809 30.5865C16.4927 36.819 15.1505 54.886 15.2363 64.7598C21.5474 46.0525 28.7344 31.2686 34.5522 26.9795Z" fill="#C17CA4"></path><path d="M81.4753 200.791L80.2386 194.902C80.2189 194.907 80.1993 194.914 80.1772 194.917C78.0596 195.199 76.0917 196.619 75.1569 198.538C74.9679 198.928 74.5851 199.191 74.1533 199.228C74.1165 199.233 74.0821 199.233 74.0478 199.233C73.6527 199.233 73.2797 199.044 73.0442 198.72C70.6861 195.456 65.6216 194.46 62.2011 196.585C61.622 196.946 60.8589 196.769 60.4982 196.19C60.1399 195.608 60.3166 194.848 60.8957 194.487C64.9272 191.979 70.4923 192.706 73.8784 195.935C75.2967 194.095 77.4168 192.828 79.7331 192.487L77.829 183.418L63.7469 140.662C63.6071 140.5 63.4746 140.33 63.3347 140.166L57.8555 202.643H81.8899L82.5083 201.743C82.0102 201.669 81.5857 201.311 81.4753 200.791Z" fill="#C17CA4"></path><path d="M210.795 202.643H211.19L211.298 201.846H211.084C211.082 202.14 210.981 202.422 210.795 202.643Z" fill="#C17CA4"></path><path d="M206.748 195.748C206.626 195.807 206.495 195.849 206.353 195.864C204.317 196.075 202.361 197.37 201.375 199.164C201.159 199.559 200.744 199.802 200.292 199.802C199.841 199.802 199.426 199.559 199.21 199.161C198.391 197.674 197.009 196.354 194.987 195.132C193.358 194.146 190.98 193.113 188.927 193.785C187.727 194.175 186.684 195.113 185.675 196.023C185.167 196.479 184.385 196.435 183.928 195.93C183.472 195.422 183.514 194.642 184.022 194.185C185.167 193.155 186.466 191.987 188.161 191.435C190.526 190.664 193.255 191.197 196.266 193.017C197.976 194.05 199.313 195.169 200.317 196.403C201.779 194.752 203.848 193.653 206.051 193.412L205.831 192.664C201.225 190.625 182.53 180.231 175.846 176.496L184.812 202.643H208.927C208.817 202.516 208.721 202.371 208.669 202.199L206.748 195.748Z" fill="#C17CA4"></path><path d="M101.967 190.146C100.51 190.254 99.2656 191.25 98.3504 192.396C96.8511 194.266 96.0021 196.648 95.9702 199.036C95.2194 195.583 92.5497 189.405 88.2728 189.356C86.0203 189.334 83.915 191.25 82.4746 193.522L83.8953 200.282C84.018 200.869 83.7039 201.443 83.1764 201.671C83.2328 201.995 83.2893 202.321 83.3457 202.645L109.137 203.504L109.539 201.583C109.483 198.55 108.533 195.544 106.779 193.071C105.643 191.473 103.93 189.996 101.967 190.146Z" fill="#FAD5E5"></path><path d="M227.651 191.168C226.258 191.663 225.261 192.956 224.825 194.365C224.378 195.783 224.437 197.299 224.643 198.757C223.927 195.214 223.137 191.514 220.803 188.753C219.88 187.666 218.563 186.702 217.137 186.876C216.477 186.957 215.876 187.271 215.316 187.624C212.473 189.438 210.1 193.015 209.582 196.608L211.037 201.493C211.071 201.611 211.084 201.731 211.084 201.846H236.674C236.713 201.385 236.747 200.926 236.789 200.462C236.377 198.404 235.577 196.426 234.448 194.662C232.949 192.345 230.245 190.255 227.651 191.168Z" fill="#FAD5E5"></path><path d="M38.2442 67.3633C38.097 67.5596 37.962 67.7657 37.8418 67.9816C37.9522 67.7829 38.0896 67.6013 38.2221 67.4173C38.2295 67.3976 38.2369 67.378 38.2442 67.3633Z" fill="white"></path><path d="M37.3196 71.1915C37.3024 71.1375 37.2754 71.086 37.2607 71.0296C37.0717 70.3573 37.1699 69.6309 37.3956 68.9684C37.5061 68.6494 37.6435 68.3476 37.8005 68.0605C37.6435 68.3476 37.5061 68.6494 37.3956 68.9684C37.1699 69.6309 37.0717 70.3573 37.2582 71.0296C37.2754 71.086 37.3024 71.1375 37.3196 71.1915Z" fill="white"></path><path d="M38.2546 72.5143C38.1393 72.4137 38.0288 72.3082 37.9258 72.1953C38.0288 72.3082 38.1393 72.4137 38.2546 72.5143Z" fill="white"></path><path d="M38.8164 72.9277C39.1452 73.1388 39.4936 73.3228 39.847 73.4774C39.8519 73.4798 39.8592 73.4798 39.8642 73.4823C39.8592 73.4798 39.8519 73.4798 39.847 73.4774C39.4936 73.3228 39.1452 73.1388 38.8164 72.9277Z" fill="white"></path><path d="M43.5792 74.3562C43.1793 74.3292 42.7793 74.285 42.3867 74.2188C42.7793 74.285 43.1793 74.3267 43.5792 74.3562Z" fill="white"></path><path d="M51.978 65.7593C51.34 65.1115 49.5316 64.4465 48.3415 64.2821C48.1894 64.26 46.2877 64.0318 44.3125 64.7508C45.7405 67.8278 45.6228 71.0618 44.9283 74.3695C44.5014 74.3866 44.0695 74.3842 43.6426 74.3597C46.2166 74.5216 48.847 73.8665 50.9768 72.4065C51.8872 71.7808 52.7214 71.0103 53.2588 70.046C53.8649 68.9516 54.0612 67.2364 53.649 65.8231C53.1607 66.2378 52.4344 66.2255 51.978 65.7593Z" fill="white"></path><path d="M42.0079 74.1378C41.711 74.0764 41.4116 74.0151 41.1172 73.9316C41.4116 74.0175 41.711 74.074 42.0079 74.1378Z" fill="white"></path><path d="M71.0781 18.8233C71.1174 18.7178 71.1591 18.6148 71.2057 18.5117C71.1591 18.6148 71.1174 18.7178 71.0781 18.8233Z" fill="#FAD5E5"></path><path d="M70.7715 20.4313C70.7715 20.3282 70.7788 20.2227 70.7862 20.1172C70.7788 20.2227 70.7715 20.3282 70.7715 20.4313Z" fill="#FAD5E5"></path><path d="M71.5684 17.8557C71.6174 17.7771 71.6665 17.7011 71.7205 17.625C71.6665 17.7011 71.6174 17.7771 71.5684 17.8557Z" fill="#FAD5E5"></path><path d="M70.7872 20.9101C70.7798 20.8168 70.7798 20.7236 70.7773 20.6328C70.7798 20.7236 70.7798 20.8168 70.7872 20.9101Z" fill="#FAD5E5"></path><path d="M71.239 23.1792L71.2363 23.1738L71.239 23.1792Z" fill="#FAD5E5"></path><path d="M71.3047 18.3211C71.3489 18.2328 71.3955 18.1445 71.4446 18.0586C71.3955 18.1445 71.3489 18.2328 71.3047 18.3211Z" fill="#FAD5E5"></path><path d="M71.0212 22.336C71.0041 22.2649 70.9893 22.1962 70.9746 22.125C70.9893 22.1962 71.0041 22.2673 71.0212 22.336Z" fill="#FAD5E5"></path><path d="M70.84 21.39C70.8277 21.3041 70.8179 21.2206 70.8105 21.1348C70.8179 21.2206 70.8277 21.3041 70.84 21.39Z" fill="#FAD5E5"></path><path d="M71.1355 22.7958C71.1207 22.7418 71.1085 22.6853 71.0938 22.6289C71.1085 22.6853 71.1207 22.7418 71.1355 22.7958Z" fill="#FAD5E5"></path><path d="M70.9182 21.8645C70.9034 21.7859 70.8912 21.7074 70.8789 21.6289C70.8912 21.7074 70.9034 21.7859 70.9182 21.8645Z" fill="#FAD5E5"></path><path d="M71.8672 17.4171C71.9187 17.3459 71.9702 17.2772 72.0218 17.2109C71.9702 17.2772 71.9187 17.3459 71.8672 17.4171Z" fill="#FAD5E5"></path><path d="M72.5488 16.5793C72.5881 16.5351 72.6273 16.4934 72.6666 16.4492C72.6273 16.4934 72.5881 16.5351 72.5488 16.5793Z" fill="#FAD5E5"></path><path d="M71.0128 18.9844C70.9588 19.1463 70.9097 19.3132 70.8729 19.4825C70.8386 19.6395 70.8141 19.7966 70.7969 19.9561C70.8141 19.7966 70.8386 19.6395 70.8729 19.4825C70.9097 19.3132 70.9564 19.1463 71.0128 18.9844Z" fill="#FAD5E5"></path><path d="M72.1973 16.9931C72.2463 16.9342 72.2954 16.8753 72.3445 16.8164C72.2954 16.8753 72.2463 16.9342 72.1973 16.9931Z" fill="#FAD5E5"></path><path d="M99.4902 0.380754C99.6694 0.353763 99.846 0.329225 100.025 0.304688C99.846 0.329225 99.6694 0.353763 99.4902 0.380754Z" fill="#FAD5E5"></path><path d="M98.2695 0.595196C98.4364 0.563297 98.6008 0.531398 98.7652 0.501953C98.6008 0.531398 98.4364 0.563297 98.2695 0.595196Z" fill="#FAD5E5"></path><path d="M100.727 0.210782C100.945 0.186245 101.161 0.166615 101.379 0.144531C101.163 0.166615 100.945 0.183791 100.727 0.210782Z" fill="#FAD5E5"></path><path d="M102.443 0.0607444C102.672 0.0460215 102.9 0.0312994 103.128 0.0214844C102.9 0.0312994 102.672 0.0460215 102.443 0.0607444Z" fill="#FAD5E5"></path><path d="M95.2617 1.3177C95.2939 1.31028 95.326 1.30039 95.3582 1.29297C95.326 1.30039 95.2939 1.31028 95.2617 1.3177Z" fill="#FAD5E5"></path><path d="M132.464 23.7206C130.597 14.6049 123.366 5.80332 114.834 2.0957C123.366 5.80332 130.597 14.6074 132.464 23.7206Z" fill="#FAD5E5"></path><path d="M97.1094 0.843743C97.2492 0.811844 97.3866 0.777492 97.5265 0.748047C97.3866 0.777492 97.2492 0.811844 97.1094 0.843743Z" fill="#FAD5E5"></path><path d="M106.252 0.0625C106.647 0.0870372 107.04 0.12139 107.432 0.163104C107.04 0.118937 106.647 0.0870372 106.252 0.0625Z" fill="#FAD5E5"></path><path d="M110.457 0.667969C110.742 0.734219 111.024 0.802925 111.306 0.878991C111.026 0.802925 110.742 0.734219 110.457 0.667969Z" fill="#FAD5E5"></path><path d="M109.174 0.412109C109.451 0.461184 109.728 0.512713 110.003 0.569149C109.728 0.512713 109.451 0.461184 109.174 0.412109Z" fill="#FAD5E5"></path><path d="M111.699 0.982422C112.109 1.09775 112.514 1.21798 112.916 1.35294C112.514 1.21798 112.109 1.09775 111.699 0.982422Z" fill="#FAD5E5"></path><path d="M107.699 0.193359C108.045 0.235074 108.391 0.281694 108.735 0.335677C108.391 0.281694 108.045 0.235074 107.699 0.193359Z" fill="#FAD5E5"></path><path d="M104.996 0.0078125C105.244 0.0127203 105.492 0.0225351 105.74 0.0348037C105.492 0.0225351 105.244 0.0127203 104.996 0.0078125Z" fill="#FAD5E5"></path><path d="M103.732 0.00736125C103.961 0.00245406 104.186 0 104.415 0C104.186 0 103.961 0.00245406 103.732 0.00736125Z" fill="#FAD5E5"></path><path d="M136.018 68.9746C136.371 70.361 136.55 71.7719 136.491 73.2171V73.2147C136.55 71.7719 136.371 70.361 136.018 68.9746Z" fill="#FAD5E5"></path><path d="M115.484 109.423C116.407 108.966 117.366 108.547 118.294 108.144C121.069 106.935 123.687 105.791 125.446 103.683C127.743 100.923 128.055 97.1785 128.384 93.2108C128.661 89.908 128.943 86.49 130.42 83.4473C130.813 82.6351 131.286 81.8671 131.789 81.1261C131.237 78.2699 130.616 75.4285 129.566 72.7367C127.108 66.4306 122.342 60.9783 121.255 54.3017C120.313 48.5059 122.291 42.6906 122.993 36.858C123.238 34.8263 123.312 32.7627 123.204 30.7089C123.172 30.7114 123.137 30.7163 123.103 30.7138C122.421 30.6721 121.901 30.0857 121.942 29.406C122.281 23.7035 119.975 17.9911 115.771 14.1216C113.659 12.1782 110.984 10.6397 108.039 9.67292C101.184 7.42283 93.2704 9.47662 87.8868 14.9117C86.3483 16.4649 85.1337 18.3028 84.3142 20.251C84.1375 20.862 83.978 21.4779 83.8406 22.0889C83.0603 25.5315 82.8738 28.9839 83.237 32.613C83.2934 32.8216 83.3425 33.0326 83.4088 33.2314C83.4946 33.4964 83.4848 33.7663 83.4014 34.0092C83.5118 34.8214 83.6468 35.6409 83.8087 36.4752C86.3287 49.3304 90.954 61.6139 90.4706 74.5966C90.4412 75.3426 90.4044 76.091 90.3406 76.8418C90.5492 79.3226 90.6669 81.8082 90.6768 84.2988C90.7037 90.5436 90.267 96.781 89.9014 103.011C89.6388 107.509 89.2192 112.043 90.3553 116.455C90.5835 117.334 90.8706 118.158 91.2019 118.941C93.1845 120.784 95.3732 122.104 98.0625 122.018C100.114 121.954 101.822 121.08 103.385 119.836C103.409 119.797 103.426 119.755 103.456 119.719C106.687 115.28 110.849 111.719 115.484 109.423Z" fill="#FAD5E5"></path><path d="M130.828 41.3412C131.577 37.7931 132.494 34.2352 132.816 30.6797C132.494 34.2352 131.577 37.7931 130.828 41.3412Z" fill="#FAD5E5"></path><path d="M256.223 153.359C255.558 152.498 254.707 151.703 254.481 150.638C254.341 149.968 254.469 149.274 254.589 148.601C256.724 136.777 256.685 124.562 254.474 112.75C254.094 110.723 253.706 108.475 252.972 106.441C252.764 105.865 252.518 105.312 252.248 104.78C252.209 103.978 252.158 103.175 252.089 102.375C249.986 77.8697 236.022 59.4543 214.73 48.2063C209.062 45.2152 203.112 42.867 196.992 41.1126C196.975 41.1027 196.965 41.1027 196.951 41.0954C185.391 36.2664 173.213 32.9293 160.787 31.2804C151.954 30.1124 143.039 29.7664 134.14 29.4278C133.725 29.4131 133.308 29.3959 132.893 29.3812C132.9 29.2168 132.918 29.0524 132.923 28.8904C132.954 27.6979 132.905 26.5054 132.746 25.3129C132.675 24.7829 132.572 24.2504 132.464 23.7204C130.594 14.6072 123.365 5.80312 114.833 2.0955C114.2 1.82068 113.562 1.5704 112.92 1.35447H112.917C112.515 1.21951 112.107 1.09683 111.7 0.9815C111.57 0.944693 111.437 0.912794 111.305 0.878442C111.023 0.80483 110.741 0.733671 110.456 0.669873C110.306 0.635521 110.154 0.603622 110.002 0.571723C109.725 0.512834 109.447 0.461304 109.17 0.41223C109.025 0.387692 108.881 0.360701 108.733 0.336164C108.387 0.282181 108.044 0.23556 107.696 0.193846C107.607 0.184031 107.521 0.171762 107.433 0.161947C107.04 0.120234 106.648 0.0858809 106.253 0.0613437C106.081 0.0490745 105.912 0.0441675 105.74 0.0343525C105.492 0.0220839 105.242 0.0122691 104.994 0.00736125C104.8 0.00245406 104.606 0 104.412 0C104.187 0 103.958 0.00245406 103.73 0.00736125C103.529 0.0122691 103.33 0.0147223 103.129 0.0220837C102.901 0.0318987 102.673 0.0466209 102.444 0.0613437C102.089 0.0834273 101.733 0.110419 101.377 0.144771C101.161 0.166855 100.945 0.186485 100.727 0.211022C100.491 0.238014 100.258 0.272366 100.023 0.304265C99.846 0.328803 99.6668 0.35334 99.4902 0.380331C99.2473 0.419591 99.0068 0.461304 98.7663 0.503018C98.5995 0.532463 98.4351 0.564362 98.2707 0.596261C98.0204 0.645336 97.7726 0.694411 97.5247 0.748393C97.3849 0.777838 97.2475 0.81219 97.1076 0.84409C96.5211 0.979045 95.9371 1.12627 95.3581 1.29313C95.3237 1.30049 95.2918 1.3103 95.2599 1.32012C93.8466 1.72744 92.4602 2.21819 91.1131 2.79237C84.5272 5.58964 78.8173 10.1438 73.8092 15.2599C72.2266 14.5139 70.5924 13.8784 68.9214 13.3631C65.9916 12.4577 62.8606 11.8933 59.7861 12.1706C56.8023 12.4405 55.5313 13.5398 53.4701 15.0832C53.2861 15.2206 53.0947 15.3629 52.8959 15.5077C47.1026 19.733 40.372 22.6898 34.5517 26.979C28.7339 31.2681 21.5468 46.052 15.2358 64.7569C3.40383 99.8283 -5.34379 148.692 3.80624 168.082C9.10389 179.31 18.3202 188.134 30.6699 188.872C39.3831 189.393 40.3303 175.647 40.3303 175.647C40.3303 175.647 33.477 172.908 30.4172 169.905C22.175 158.596 27.4039 114.796 37.7956 110.821C37.7293 111.187 37.695 111.565 37.6876 111.935C37.6336 115.069 38.7378 118.212 40.7425 120.621C43.4711 116.465 46.9947 111.874 51.0115 108.186C51.3305 112.136 52.0396 116.045 53.1241 119.853C54.8638 125.951 57.5311 131.783 61.0007 137.098C61.7172 138.19 62.5097 139.196 63.3342 140.165C63.4741 140.33 63.6066 140.502 63.7464 140.661C66.7768 144.111 70.2979 146.997 73.0805 150.596C76.0716 154.468 76.1035 161.184 76.9353 165.962C77.3451 168.305 77.7573 170.648 78.1646 172.992L82.4734 193.522C83.9138 191.25 86.0191 189.334 88.2741 189.356C92.5485 189.405 95.2182 195.586 95.969 199.038C96.0009 196.648 96.8499 194.266 98.3516 192.396C99.2644 191.25 100.508 190.254 101.968 190.146C103.929 189.999 105.642 191.473 106.78 193.071C108.535 195.544 109.482 198.55 109.541 201.583L115.584 173.087C115.567 173.083 115.55 173.085 115.533 173.08C114.865 172.933 114.446 172.273 114.595 171.608C115.808 166.138 116.934 161.611 118.131 157.356C118.315 156.696 119.002 156.319 119.655 156.5C120.313 156.684 120.695 157.369 120.511 158.024C119.393 161.992 118.34 166.214 117.214 171.223C132.618 174.577 151.34 176.331 173.454 175.154C180.964 174.756 188.866 174.02 197.157 172.894C198.06 172.768 198.946 172.626 199.817 172.476L194.862 155.845C194.669 155.19 195.039 154.503 195.694 154.309C196.342 154.11 197.037 154.486 197.23 155.141L209.583 196.607C210.1 193.014 212.473 189.439 215.317 187.626C215.876 187.27 216.478 186.958 217.138 186.875C218.563 186.703 219.881 187.668 220.804 188.755C223.135 191.515 223.927 195.213 224.644 198.756C224.438 197.299 224.379 195.782 224.825 194.364C225.262 192.955 226.258 191.662 227.652 191.167C230.246 190.254 232.95 192.347 234.449 194.661C235.578 196.425 236.377 198.403 236.787 200.464C237.835 187.898 238.89 175.33 239.935 162.774C240.537 155.612 239.953 147.127 243.486 140.904C247.486 133.867 250.204 126.147 251.483 118.187C251.927 120.813 252.283 123.455 252.528 126.108C253.303 134.524 253.075 143.036 251.829 151.399C251.613 152.849 251.35 154.341 250.55 155.57C250.266 156.007 249.9 156.473 249.991 156.988C250.126 157.781 251.159 157.982 251.964 158.002C252.185 160.252 251.777 162.561 250.803 164.6C252.491 165.096 254.479 164.141 255.146 162.514C255.733 163.29 255.833 164.406 255.394 165.275C258.51 162.23 258.888 156.804 256.223 153.359ZM2.00765 139.616C2.33645 139.017 3.0873 138.799 3.68601 139.125C4.91288 139.797 6.30171 140.212 7.70034 140.32C8.38249 140.372 8.89041 140.965 8.83643 141.648C8.78735 142.295 8.24507 142.789 7.6071 142.789C7.5752 142.789 7.54085 142.786 7.50895 142.784C5.76434 142.649 4.02953 142.133 2.49594 141.292C1.89968 140.965 1.67884 140.215 2.00765 139.616ZM0.810216 149.355C1.05559 148.717 1.76963 148.4 2.40761 148.641C5.59503 149.863 7.20959 150.184 10.6203 150.287C11.3049 150.307 11.8398 150.876 11.8202 151.558C11.8006 152.228 11.2509 152.758 10.586 152.758C10.5737 152.758 10.5614 152.758 10.5491 152.756C6.84399 152.648 4.9865 152.275 1.52426 150.95C0.886283 150.707 0.567295 149.993 0.810216 149.355ZM15.4984 163.331C14.7328 163.378 13.9918 163.402 13.2704 163.402C9.55047 163.402 6.33851 162.765 2.64562 161.334C2.00765 161.089 1.69111 160.372 1.93894 159.737C2.18432 159.099 2.89836 158.782 3.53879 159.03C7.64145 160.617 10.9491 161.13 15.3462 160.865C16.0333 160.824 16.6124 161.341 16.6565 162.023C16.6982 162.706 16.178 163.29 15.4984 163.331ZM28.8173 65.5077C28.6603 66.0476 28.1695 66.3984 27.6321 66.3984C27.5193 66.3984 27.4015 66.3837 27.2862 66.3494C25.9292 65.9568 24.933 65.7384 24.0546 65.547C21.8266 65.0611 20.4819 64.7667 17.373 62.3964C16.8307 61.9841 16.7277 61.2063 17.1399 60.664C17.5546 60.1218 18.33 60.0162 18.8723 60.4309C21.5444 62.47 22.4964 62.6761 24.5797 63.1301C25.4532 63.3214 26.5378 63.557 27.9757 63.9741C28.6308 64.1655 29.0087 64.8501 28.8173 65.5077ZM50.9796 72.4077C48.8497 73.8677 46.2168 74.5228 43.6429 74.3609C43.6208 74.3584 43.6011 74.3559 43.5791 74.3559C43.1791 74.3265 42.7791 74.2872 42.3865 74.2185C42.2589 74.1965 42.1363 74.1621 42.0111 74.1376C41.7118 74.0738 41.4124 74.0173 41.1204 73.9314C40.6935 73.8088 40.2739 73.6591 39.8641 73.4824C39.8592 73.48 39.8518 73.48 39.8469 73.4775C39.4936 73.3229 39.1451 73.1389 38.8163 72.9279C38.62 72.8003 38.4286 72.6653 38.2544 72.5132C38.1391 72.4126 38.0287 72.3071 37.9281 72.1942C37.6582 71.9022 37.4545 71.566 37.3195 71.1906C37.3024 71.1366 37.2754 71.0851 37.2607 71.0287C37.0717 70.3563 37.1723 69.63 37.3981 68.9675C37.506 68.6485 37.6434 68.3467 37.8029 68.0596C37.8152 68.0326 37.8275 68.0056 37.8422 67.9811C37.9649 67.7652 38.0998 67.5591 38.2471 67.3603C40.4432 62.232 45.8365 61.4468 48.6779 61.8345C49.9784 62.0111 52.5009 62.7644 53.7425 64.0281C54.221 64.514 54.2136 65.2967 53.7278 65.7752C53.7057 65.7973 53.6762 65.8046 53.6517 65.8243C54.0639 67.2376 53.8676 68.9528 53.2616 70.0472C52.7242 71.0115 51.8899 71.7844 50.9796 72.4077ZM83.1261 95.5784C79.0652 100.488 76.8274 103.192 68.1877 105.811L67.4344 106.041C64.696 106.89 59.5971 108.473 52.8935 108.664C52.8837 108.667 52.8714 108.667 52.8591 108.667C52.2457 108.667 51.7353 108.215 51.6445 107.621C51.6347 107.57 51.6249 107.518 51.6249 107.467C51.6053 106.782 52.1426 106.215 52.8248 106.196C53.0162 106.188 53.1928 106.174 53.3842 106.164C59.4573 105.914 63.9771 104.525 66.7032 103.681L67.4688 103.445C75.3993 101.04 77.2224 98.8345 81.2196 94.0031C82.3336 92.6585 83.5948 91.1322 85.1873 89.3606C85.6412 88.8552 86.4215 88.811 86.9319 89.2698C87.4398 89.7262 87.4791 90.5065 87.0251 91.0145C85.467 92.7468 84.223 94.2509 83.1261 95.5784ZM88.5097 187.437C88.4557 187.444 88.3992 187.447 88.3453 187.447C87.7343 187.447 87.2043 186.995 87.1208 186.374L86.4362 181.212C86.3479 180.537 86.8239 179.916 87.5012 179.825C88.1686 179.73 88.7967 180.211 88.8875 180.888L89.5721 186.048C89.6629 186.725 89.1869 187.346 88.5097 187.437ZM108.633 178.491C108.508 178.532 108.383 178.549 108.257 178.549C107.735 178.549 107.249 178.216 107.08 177.691C106.501 175.882 106.299 173.917 106.493 172.005C106.564 171.328 107.185 170.84 107.85 170.901C108.527 170.972 109.023 171.578 108.952 172.258C108.792 173.833 108.957 175.45 109.435 176.937C109.644 177.588 109.283 178.284 108.633 178.491ZM139.059 72.7537C138.785 75.8233 136.988 78.2304 135.249 80.5566C134.25 81.8939 133.308 83.1551 132.643 84.5243C131.369 87.1547 131.117 90.1949 130.847 93.4167C130.501 97.5905 130.142 101.907 127.343 105.263C125.213 107.823 122.197 109.138 119.282 110.409C118.382 110.801 117.449 111.209 116.581 111.638C112.301 113.758 108.451 117.056 105.45 121.173C105.21 121.507 104.834 121.681 104.452 121.681C104.199 121.681 103.944 121.605 103.725 121.446C103.213 121.07 103.078 120.376 103.384 119.836C101.821 121.08 100.113 121.954 98.0621 122.02C95.3728 122.106 93.184 120.786 91.2014 118.943C90.8702 118.158 90.5831 117.333 90.3549 116.457C89.2188 112.043 89.6384 107.509 89.9009 103.013C90.2665 96.7808 90.7033 90.5458 90.6763 84.2985C90.6665 81.8104 90.5487 79.3223 90.3401 76.8441C90.4039 76.0908 90.4408 75.3424 90.4702 74.5964C90.9536 61.6136 86.3283 49.3326 83.8083 36.475C83.6463 35.6432 83.5114 34.8211 83.4009 34.0114C83.2832 34.3672 83.0034 34.6666 82.6182 34.7942C82.4906 34.8359 82.3606 34.8555 82.233 34.8555C81.7152 34.8555 81.2294 34.5242 81.0601 34.0041C80.4614 32.176 80.2209 30.1369 80.3264 27.7838C80.3951 26.206 80.6159 24.4909 81.0012 22.5917C81.703 19.1491 83.5236 15.8046 86.132 13.1717C92.1682 7.07907 101.07 4.78236 108.81 7.32444C112.088 8.40164 115.074 10.1242 117.447 12.3056C122.19 16.6708 124.793 23.1192 124.408 29.5554C124.371 30.2007 123.849 30.7062 123.206 30.7111C123.314 32.7625 123.238 34.8285 122.992 36.8602C122.293 42.6928 120.315 48.5082 121.255 54.3039C122.342 60.9806 127.107 66.4328 129.568 72.7389C130.616 75.4307 131.239 78.2721 131.789 81.1283C132.267 80.4241 132.773 79.7444 133.271 79.0794C134.719 77.1434 136.08 75.3031 136.49 73.2199V73.2174C136.534 72.9941 136.579 72.7684 136.598 72.5353C136.709 71.3207 136.458 70.1453 136.017 68.9773C136.284 70.0177 136.451 71.0704 136.493 72.1427C136.451 71.0728 136.284 70.0177 136.017 68.9773C135.46 67.4953 134.589 66.0279 133.676 64.5115C133.246 63.7999 132.819 63.0908 132.427 62.3792C129.104 56.3553 128.005 49.0382 129.411 42.3051C129.549 41.6524 130.179 41.2328 130.829 41.3432C131.482 38.2368 132.27 35.1254 132.67 32.0141C132.27 35.1254 131.482 38.2368 130.829 41.3432C130.844 41.3457 130.859 41.3432 130.874 41.3481C131.544 41.488 131.97 42.1431 131.833 42.8106C130.545 48.9744 131.551 55.6731 134.594 61.1842C134.969 61.8688 135.381 62.551 135.793 63.238C137.555 66.1653 139.378 69.1933 139.059 72.7537ZM168.384 152.451C168.384 153.134 167.832 153.688 167.15 153.688C166.468 153.688 165.913 153.134 165.913 152.451V152.012C165.913 151.33 166.468 150.775 167.15 150.775C167.832 150.775 168.384 151.33 168.384 152.012V152.451ZM181.229 163.79C181.229 164.472 180.675 165.027 179.993 165.027C179.311 165.027 178.759 164.472 178.759 163.79V158.932C178.759 158.247 179.311 157.695 179.993 157.695C180.675 157.695 181.229 158.247 181.229 158.932V163.79ZM190.068 147.335L189.653 150.866C189.577 151.494 189.045 151.956 188.426 151.956C188.377 151.956 188.328 151.953 188.279 151.948C187.602 151.867 187.118 151.254 187.197 150.577L187.614 147.046C187.693 146.369 188.309 145.873 188.986 145.964C189.663 146.045 190.149 146.658 190.068 147.335ZM221.28 79.3763L221.66 78.9371C222.106 78.4218 222.884 78.3629 223.402 78.8095C223.92 79.2561 223.976 80.0364 223.53 80.5517L223.152 80.9909C222.906 81.2755 222.563 81.4203 222.214 81.4203C221.93 81.4203 221.643 81.3221 221.407 81.1209C220.892 80.6744 220.835 79.8941 221.28 79.3763ZM223.201 174.226C223.142 174.233 223.086 174.238 223.029 174.238C222.423 174.238 221.893 173.789 221.807 173.171L221.181 168.649C221.086 167.971 221.559 167.348 222.237 167.255C222.909 167.167 223.535 167.633 223.63 168.31L224.256 172.835C224.349 173.509 223.878 174.133 223.201 174.226ZM230.103 97.5144C229.929 97.5979 229.745 97.6396 229.563 97.6396C229.105 97.6396 228.665 97.3819 228.452 96.9427L226.246 92.3885C225.947 91.7751 226.204 91.0365 226.818 90.7372C227.434 90.4403 228.172 90.6955 228.469 91.3114L230.675 95.8631C230.972 96.479 230.717 97.2175 230.103 97.5144ZM233.642 178.388C233.58 178.397 233.516 178.402 233.453 178.402C232.854 178.402 232.329 177.965 232.233 177.355L231.637 173.475C231.534 172.8 231.995 172.17 232.672 172.067C233.337 171.961 233.975 172.425 234.081 173.1L234.677 176.979C234.78 177.654 234.319 178.284 233.642 178.388ZM235.477 160.119C235.477 160.802 234.925 161.354 234.243 161.354C233.558 161.354 233.006 160.802 233.006 160.119V155.261C233.006 154.576 233.558 154.024 234.243 154.024C234.925 154.024 235.477 154.576 235.477 155.261V160.119ZM236.768 89.4195C236.625 89.4735 236.478 89.498 236.336 89.498C235.833 89.498 235.362 89.1913 235.178 88.6932L233.487 84.166C233.249 83.5281 233.573 82.8165 234.213 82.576C234.851 82.3404 235.563 82.6619 235.803 83.3023L237.494 87.8295C237.732 88.4699 237.408 89.1815 236.768 89.4195ZM245.27 105.44C245.128 105.494 244.983 105.519 244.838 105.519C244.337 105.519 243.866 105.212 243.68 104.714L241.989 100.187C241.751 99.5486 242.078 98.837 242.715 98.5965C243.356 98.361 244.065 98.6824 244.306 99.3228L245.996 103.85C246.234 104.49 245.91 105.2 245.27 105.44Z" fill="#ECB6D5"></path><path d="M83.4233 23.0808C82.6185 27.0486 82.5621 30.0937 83.2368 32.6137C82.8737 28.9846 83.0602 25.5297 83.8405 22.0895C83.7914 22.0454 83.7472 22.0012 83.7006 21.957C83.5926 22.33 83.5018 22.7054 83.4233 23.0808Z" fill="#ECB6D5"></path><path d="M119.656 156.501C119.001 156.319 118.316 156.697 118.13 157.354C116.932 161.609 115.808 166.139 114.594 171.606C114.447 172.273 114.866 172.933 115.534 173.081C115.551 173.085 115.568 173.083 115.583 173.085C115.656 173.1 115.73 173.11 115.801 173.11C116.368 173.11 116.878 172.717 117.006 172.143C117.077 171.829 117.146 171.53 117.214 171.223C118.338 166.215 119.393 161.992 120.51 158.024C120.694 157.367 120.314 156.685 119.656 156.501Z" fill="#16213D"></path><path d="M82.4735 193.521L78.1647 172.99C77.7574 170.647 77.3452 168.304 76.9354 165.963C76.1036 161.183 76.0717 154.467 73.0806 150.595C70.2956 146.995 66.7769 144.11 63.7465 140.662L77.8286 183.416L79.7327 192.488C77.4164 192.829 75.2963 194.095 73.8781 195.935C70.4919 192.704 64.9268 191.98 60.8953 194.488C60.3162 194.848 60.1395 195.609 60.4978 196.188C60.8585 196.77 61.6216 196.946 62.2007 196.585C65.6212 194.461 70.6857 195.457 73.0438 198.72C73.2793 199.044 73.6523 199.233 74.0474 199.233C74.0817 199.233 74.1185 199.231 74.1529 199.228C74.5847 199.191 74.9675 198.929 75.1565 198.539C76.0913 196.62 78.0592 195.199 80.1768 194.917C80.1989 194.914 80.2185 194.907 80.2382 194.902L81.4749 200.791C81.5853 201.311 82.0098 201.667 82.5079 201.741C82.5668 201.751 82.6232 201.773 82.6821 201.773C82.768 201.773 82.8514 201.765 82.9397 201.746C83.0207 201.729 83.1017 201.702 83.1753 201.67C83.7053 201.441 84.0169 200.867 83.8943 200.281L82.4735 193.521Z" fill="#16213D"></path><path d="M209.583 196.604L197.23 155.138C197.037 154.483 196.342 154.11 195.694 154.306C195.039 154.5 194.669 155.19 194.863 155.842L199.817 172.476C198.946 172.623 198.06 172.766 197.157 172.891C188.866 174.017 180.965 174.753 173.454 175.153H173.451C173.451 175.153 174.349 175.659 175.846 176.496C182.53 180.23 201.225 190.624 205.831 192.663L206.052 193.409C203.848 193.652 201.78 194.751 200.317 196.403C199.314 195.166 197.976 194.05 196.266 193.017C193.255 191.196 190.527 190.663 188.161 191.434C186.466 191.986 185.168 193.154 184.022 194.185C183.514 194.639 183.472 195.421 183.929 195.929C184.385 196.435 185.168 196.479 185.676 196.02C186.684 195.112 187.727 194.172 188.927 193.782C190.981 193.112 193.358 194.145 194.988 195.132C197.01 196.354 198.391 197.671 199.211 199.161C199.427 199.556 199.841 199.801 200.293 199.801C200.744 199.801 201.159 199.556 201.375 199.163C202.361 197.37 204.317 196.074 206.353 195.863C206.496 195.848 206.626 195.804 206.749 195.748L208.67 202.196C208.721 202.37 208.815 202.513 208.927 202.64C209.161 202.91 209.492 203.079 209.853 203.079C209.97 203.079 210.088 203.062 210.206 203.028C210.446 202.957 210.645 202.819 210.795 202.64C210.981 202.422 211.084 202.14 211.084 201.845C211.084 201.727 211.072 201.61 211.038 201.492L209.583 196.604Z" fill="#16213D"></path><path d="M88.8876 180.887C88.7968 180.21 88.1687 179.729 87.5013 179.825C86.824 179.915 86.348 180.536 86.4363 181.211L87.1209 186.371C87.2044 186.994 87.7344 187.446 88.3453 187.446C88.3993 187.446 88.4533 187.444 88.5097 187.436C89.187 187.345 89.663 186.725 89.5722 186.047L88.8876 180.887Z" fill="#16213D"></path><path d="M108.952 172.259C109.023 171.579 108.528 170.973 107.85 170.902C107.185 170.84 106.565 171.329 106.493 172.006C106.3 173.917 106.501 175.883 107.08 177.691C107.249 178.216 107.735 178.55 108.258 178.55C108.383 178.55 108.508 178.533 108.633 178.491C109.283 178.285 109.644 177.588 109.436 176.938C108.957 175.451 108.793 173.834 108.952 172.259Z" fill="#16213D"></path><path d="M228.469 91.3112C228.172 90.6953 227.434 90.4401 226.818 90.737C226.204 91.0364 225.947 91.775 226.246 92.3884L228.452 96.9426C228.665 97.3818 229.107 97.6394 229.563 97.6394C229.745 97.6394 229.929 97.5977 230.103 97.5143C230.717 97.2174 230.974 96.4788 230.675 95.8629L228.469 91.3112Z" fill="#16213D"></path><path d="M244.306 99.323C244.066 98.6825 243.357 98.3611 242.716 98.5967C242.078 98.8347 241.752 99.5463 241.99 100.187L243.681 104.714C243.867 105.212 244.338 105.516 244.839 105.516C244.984 105.516 245.128 105.492 245.271 105.44C245.911 105.2 246.235 104.488 245.997 103.85L244.306 99.323Z" fill="#16213D"></path><path d="M235.803 83.3015C235.562 82.6611 234.851 82.3396 234.213 82.5752C233.572 82.8156 233.248 83.5248 233.486 84.1652L235.177 88.6924C235.361 89.1905 235.832 89.4972 236.335 89.4972C236.477 89.4972 236.625 89.4702 236.767 89.4187C237.405 89.1782 237.731 88.4666 237.493 87.8287L235.803 83.3015Z" fill="#16213D"></path><path d="M234.243 154.025C233.558 154.025 233.006 154.577 233.006 155.262V160.121C233.006 160.803 233.558 161.355 234.243 161.355C234.925 161.355 235.477 160.803 235.477 160.121V155.262C235.477 154.58 234.925 154.025 234.243 154.025Z" fill="#16213D"></path><path d="M178.758 158.932V163.79C178.758 164.473 179.31 165.027 179.992 165.027C180.674 165.027 181.229 164.473 181.229 163.79V158.932C181.229 158.247 180.674 157.695 179.992 157.695C179.31 157.695 178.758 158.247 178.758 158.932Z" fill="#16213D"></path><path d="M234.081 173.101C233.978 172.426 233.338 171.962 232.673 172.068C231.998 172.171 231.534 172.801 231.637 173.476L232.236 177.356C232.329 177.967 232.854 178.403 233.456 178.403C233.517 178.403 233.581 178.398 233.645 178.389C234.319 178.285 234.781 177.655 234.678 176.98L234.081 173.101Z" fill="#16213D"></path><path d="M223.631 168.31C223.537 167.633 222.909 167.167 222.237 167.255C221.56 167.348 221.088 167.971 221.182 168.649L221.807 173.171C221.893 173.789 222.423 174.238 223.029 174.238C223.086 174.238 223.145 174.233 223.201 174.226C223.878 174.133 224.349 173.509 224.256 172.832L223.631 168.31Z" fill="#16213D"></path><path d="M222.214 81.4208C222.562 81.4208 222.906 81.2736 223.151 80.9914L223.532 80.5522C223.976 80.0345 223.919 79.2542 223.402 78.8101C222.886 78.3635 222.106 78.4224 221.659 78.9376L221.282 79.3769C220.835 79.8946 220.891 80.6749 221.409 81.119C221.642 81.3202 221.929 81.4208 222.214 81.4208Z" fill="#16213D"></path><path d="M187.613 147.046L187.196 150.577C187.115 151.254 187.601 151.87 188.278 151.949C188.327 151.956 188.379 151.958 188.426 151.958C189.044 151.958 189.576 151.495 189.653 150.866L190.067 147.338C190.148 146.658 189.662 146.045 188.985 145.964C188.308 145.873 187.694 146.369 187.613 147.046Z" fill="#16213D"></path><path d="M167.151 150.775C166.469 150.775 165.914 151.33 165.914 152.012V152.451C165.914 153.133 166.469 153.688 167.151 153.688C167.833 153.688 168.385 153.133 168.385 152.451V152.012C168.385 151.33 167.833 150.775 167.151 150.775Z" fill="#16213D"></path><path d="M53.6511 65.825C53.6732 65.8053 53.7026 65.798 53.7247 65.7759C54.213 65.2974 54.2179 64.5147 53.7394 64.0288C52.5003 62.7651 49.9754 62.0118 48.6749 61.8352C45.8335 61.4475 40.4426 62.2327 38.244 67.361C38.2367 67.3782 38.2293 67.3978 38.2219 67.415C38.0894 67.6015 37.9545 67.7806 37.8416 67.9818C37.8269 68.0063 37.8146 68.0333 37.7999 68.0603C37.6428 68.3474 37.5054 68.6492 37.395 68.9682C37.1693 69.6307 37.0711 70.357 37.2601 71.0294C37.2748 71.0858 37.3018 71.1373 37.3189 71.1913C37.4515 71.5667 37.6576 71.9029 37.925 72.1949C38.0281 72.3078 38.1385 72.4133 38.2538 72.5139C38.428 72.6636 38.6194 72.7985 38.8157 72.9286C39.1445 73.1396 39.493 73.3236 39.8463 73.4782C39.8512 73.4807 39.8586 73.4807 39.8635 73.4831C40.2733 73.6598 40.6929 73.8095 41.1198 73.9322C41.4118 74.0156 41.7112 74.0769 42.0105 74.1383C42.1357 74.1628 42.2583 74.1972 42.3859 74.2192C42.7785 74.2855 43.1785 74.3297 43.5785 74.3567C43.6005 74.3567 43.6226 74.3591 43.6423 74.3616C44.0717 74.3861 44.5011 74.391 44.928 74.3714C45.6224 71.0637 45.7402 67.8297 44.3121 64.7527C46.2874 64.0337 48.1915 64.2619 48.3412 64.284C49.5337 64.4484 51.3421 65.1134 51.9776 65.7612C52.434 66.2274 53.1604 66.2396 53.6511 65.825Z" fill="#16213D"></path><path d="M68.1883 105.81C76.828 103.192 79.0658 100.488 83.1267 95.5778C84.2236 94.2503 85.4676 92.7461 87.0257 91.0138C87.4821 90.5059 87.4404 89.7256 86.9325 89.2692C86.4221 88.8103 85.6418 88.8545 85.1879 89.36C83.5954 91.1316 82.3342 92.6578 81.2226 94.0024C77.223 98.8339 75.3999 101.04 67.4718 103.444L66.7038 103.68C63.9777 104.527 59.4603 105.913 53.3849 106.163C53.1959 106.173 53.0168 106.188 52.8254 106.195C52.1433 106.215 51.6059 106.782 51.6255 107.466C51.628 107.518 51.6378 107.569 51.6452 107.621C51.7384 108.215 52.2463 108.666 52.8598 108.666C52.872 108.666 52.8843 108.666 52.8966 108.664C59.6002 108.472 64.6966 106.89 67.435 106.041L68.1883 105.81Z" fill="#16213D"></path><path d="M15.3461 160.865C10.949 161.13 7.64137 160.617 3.5387 159.03C2.90073 158.782 2.18423 159.098 1.93886 159.734C1.69348 160.372 2.00756 161.088 2.64554 161.334C6.33843 162.764 9.55039 163.402 13.2703 163.402C13.9917 163.402 14.7327 163.378 15.4983 163.331C16.1804 163.289 16.6982 162.703 16.6564 162.021C16.6123 161.341 16.0332 160.823 15.3461 160.865Z" fill="#16213D"></path><path d="M10.5857 152.757C11.2506 152.757 11.8003 152.227 11.8199 151.557C11.8395 150.875 11.3022 150.306 10.62 150.286C7.20685 150.186 5.59473 149.862 2.40731 148.642C1.76934 148.399 1.0553 148.716 0.809923 149.354C0.567002 149.992 0.885989 150.706 1.52396 150.951C4.9862 152.276 6.84124 152.647 10.5464 152.757C10.5611 152.757 10.5734 152.757 10.5857 152.757Z" fill="#16213D"></path><path d="M7.70064 140.321C6.302 140.213 4.91318 139.798 3.68631 139.126C3.08759 138.8 2.33674 139.018 2.00794 139.617C1.67914 140.215 1.89998 140.966 2.49869 141.295C4.03228 142.134 5.76463 142.65 7.50925 142.785C7.5436 142.787 7.5755 142.789 7.6074 142.789C8.24537 142.789 8.78765 142.296 8.83672 141.648C8.89071 140.966 8.38278 140.372 7.70064 140.321Z" fill="#16213D"></path><path d="M27.9747 63.9767C26.5393 63.5596 25.4523 63.3216 24.5787 63.1326C22.4955 62.6762 21.5459 62.4701 18.8713 60.431C18.3291 60.0164 17.5537 60.1219 17.139 60.6666C16.7268 61.2089 16.8298 61.9843 17.3745 62.3965C20.4834 64.7693 21.8256 65.0613 24.0536 65.5471C24.9345 65.7385 25.9308 65.9569 27.2877 66.3495C27.403 66.3838 27.5183 66.3986 27.6312 66.3986C28.1686 66.3986 28.6618 66.0477 28.8188 65.5079C29.0078 64.8502 28.6299 64.1657 27.9747 63.9767Z" fill="#16213D"></path><path d="M115.771 14.1215C119.974 17.9911 122.281 23.7034 121.942 29.4059C121.9 30.088 122.421 30.672 123.1 30.7137C123.137 30.7162 123.169 30.7113 123.203 30.7088C123.846 30.7039 124.371 30.1985 124.408 29.5531C124.791 23.1169 122.187 16.6685 117.444 12.3033C115.074 10.1219 112.085 8.39935 108.807 7.32216C101.068 4.78007 92.1659 7.07678 86.1296 13.1694C83.5213 15.8023 81.7006 19.1468 81.0013 22.5894C80.6136 24.4886 80.3928 26.2038 80.3241 27.784C80.221 30.1347 80.459 32.1737 81.0577 34.0018C81.227 34.522 81.7129 34.8532 82.2331 34.8532C82.3607 34.8532 82.4883 34.8336 82.6183 34.7919C83.0036 34.6643 83.2808 34.3649 83.4011 34.0091C83.482 33.7638 83.4943 33.4938 83.406 33.2313C83.3422 33.0301 83.2907 32.8191 83.2342 32.6105C82.5619 30.0929 82.6183 27.0478 83.4232 23.0801C83.4992 22.7047 83.5925 22.3293 83.7004 21.9563C83.8648 21.3797 84.0783 20.8104 84.3139 20.2485C85.131 18.3027 86.3456 16.4648 87.8865 14.9091C93.27 9.47655 101.181 7.42031 108.037 9.67039C110.984 10.6396 113.658 12.1781 115.771 14.1215Z" fill="#16213D"></path><path d="M134.592 61.1828C131.549 55.6717 130.543 48.973 131.831 42.8092C131.969 42.1417 131.542 41.4866 130.874 41.3467C130.857 41.3418 130.842 41.3443 130.828 41.3418C130.18 41.2314 129.549 41.651 129.409 42.3037C128.003 49.0368 129.103 56.3539 132.427 62.3778C132.82 63.0894 133.245 63.7985 133.674 64.5101C134.587 66.0265 135.458 67.4939 136.017 68.9759C136.457 70.1439 136.707 71.3193 136.599 72.5339C136.577 72.767 136.535 72.9927 136.491 73.2185C136.079 75.3017 134.717 77.142 133.269 79.078C132.771 79.743 132.266 80.4227 131.79 81.1269C131.284 81.8679 130.813 82.636 130.42 83.4482C128.943 86.4908 128.659 89.9089 128.384 93.2116C128.055 97.1793 127.743 100.926 125.444 103.684C123.687 105.792 121.067 106.933 118.294 108.145C117.366 108.548 116.407 108.967 115.484 109.424C110.849 111.72 106.688 115.281 103.454 119.719C103.427 119.756 103.407 119.798 103.385 119.837C103.076 120.377 103.211 121.071 103.726 121.444C103.944 121.606 104.2 121.682 104.452 121.682C104.833 121.682 105.211 121.506 105.451 121.175C108.452 117.055 112.302 113.759 116.581 111.639C117.45 111.207 118.382 110.803 119.283 110.41C122.198 109.139 125.211 107.824 127.343 105.264C130.141 101.908 130.501 97.5916 130.847 93.4153C131.115 90.196 131.367 87.1558 132.643 84.5253C133.308 83.1562 134.251 81.8925 135.249 80.5576C136.987 78.229 138.785 75.8244 139.06 72.7547C139.379 69.1943 137.556 66.1664 135.792 63.2366C135.379 62.5496 134.97 61.8674 134.592 61.1828Z" fill="#16213D"></path></svg>