<?xml version="1.0" encoding="UTF-8"?><svg id="katman_2" xmlns="http://www.w3.org/2000/svg" viewBox="0 0 26.69 32.98"><defs><style>.cls-1{fill:#fff;}.cls-2{stroke:#2471ce;}.cls-2,.cls-3{fill:#4c97ff;stroke-miterlimit:10;stroke-width:.5px;}.cls-4{fill:#e94647;}.cls-3{stroke:#2370cc;}</style></defs><g id="katman_1"><path class="cls-3" d="m26.02,8.63l-1.87-2.07c-.43-.48-.67-1.09-.67-1.73V1.28c0-.57-.46-1.03-1.03-1.03H1.46C.79.25.25.79.25,1.46v3.93c0,.29.1.56.28.78l2.25,2.77c.22.27.34.61.34.96v4.46c0,.31-.11.6-.32.83l-2.21,2.45c-.21.24-.33.55-.33.87v3.75c0,.8.65,1.46,1.45,1.46.55,0,1.24,0,2.02,0,1.04-1.82,2.99-3.04,5.23-3.04h5.74c2.23,0,4.17,1.22,5.21,3.02.92,0,1.72,0,2.34,0,.77,0,1.39-.63,1.39-1.39v-3.58c0-.48.17-.95.49-1.31l1.82-2.08c.31-.35.48-.8.48-1.27v-4.33c0-.41-.15-.8-.42-1.1Z"/><path class="cls-2" d="m14.71,20.68h-5.74c-2.24,0-4.19,1.23-5.23,3.04-.5.88-.79,1.89-.79,2.98,0,3.33,2.7,6.02,6.02,6.02h5.74c3.33,0,6.02-2.7,6.02-6.02,0-1.1-.3-2.12-.81-3-1.04-1.8-2.98-3.02-5.21-3.02Zm-.81,5.35l-1.81,1.85c-.14.15-.38.15-.52,0l-1.81-1.85c-.22-.23-.06-.62.26-.62h3.62c.32,0,.48.39.26.62Z"/><path class="cls-1" d="m13.65,25.42h-3.62c-.32,0-.48.39-.26.62l1.81,1.85c.14.15.38.15.52,0l1.81-1.85c.22-.23.06-.62-.26-.62Z"/><path class="cls-4" d="m16.08,9.3c0-1.85-1.5-3.35-3.35-3.35h-.03c-1.85,0-3.35,1.5-3.35,3.35v5.11h6.73v-5.11Z"/><path class="cls-1" d="m16.26,14.4h-7.11c-.18,0-.33.15-.33.33v.42c0,.18.15.33.33.33h1.8v1.52c0,.16.13.29.29.29h.25c.16,0,.29-.13.29-.29v-1.52h1.9v1.52c0,.16.13.29.29.29h.25c.16,0,.29-.13.29-.29v-1.52h1.72c.18,0,.33-.15.33-.33v-.42c0-.18-.15-.33-.33-.33Z"/></g></svg>