<svg xmlns="http://www.w3.org/2000/svg" xmlns:xlink="http://www.w3.org/1999/xlink" id="eEakSsydo821" viewBox="0 0 135 117"><style><![CDATA[#eEakSsydo823_tr {animation: eEakSsydo823_tr__tr 3000ms linear infinite normal forwards}@keyframes eEakSsydo823_tr__tr { 0% {transform: translate(117.994256px,38.784801px) rotate(0deg);animation-timing-function: cubic-bezier(0.42,0,1,1)} 50% {transform: translate(117.994256px,38.784801px) rotate(0deg);animation-timing-function: cubic-bezier(0.42,0,1,1)} 66.666667% {transform: translate(117.994256px,38.784801px) rotate(-2deg);animation-timing-function: cubic-bezier(0.42,0,1,1)} 83.333333% {transform: translate(117.994256px,38.784801px) rotate(0deg);animation-timing-function: cubic-bezier(0.42,0,1,1)} 100% {transform: translate(117.994256px,38.784801px) rotate(0deg)}} #eEakSsydo828_tr {animation: eEakSsydo828_tr__tr 3000ms linear infinite normal forwards}@keyframes eEakSsydo828_tr__tr { 0% {transform: translate(112.358972px,39.708801px) rotate(0deg);animation-timing-function: cubic-bezier(0.42,0,1,1)} 20% {transform: translate(112.358972px,39.708801px) rotate(0deg);animation-timing-function: cubic-bezier(0.42,0,1,1)} 36.666667% {transform: translate(112.358972px,39.708801px) rotate(-2deg);animation-timing-function: cubic-bezier(0.42,0,1,1)} 53.333333% {transform: translate(112.358972px,39.708801px) rotate(0deg);animation-timing-function: cubic-bezier(0.42,0,1,1)} 100% {transform: translate(112.358972px,39.708801px) rotate(0deg)}}]]></style><path d="M111.895,36.3935c-4.793,2.5263-6.973,8.181-8.039,13.4896-1.062,5.3086-1.478,10.939-4.2981,15.5624-3.9763,6.5233-12.0084,9.5894-19.6425,9.925-2.6993.1212-5.4747-.0311-8.0252.8548-4.2323,1.4673-6.9766,5.4297-10.2019,8.5374-5.2221,5.0317-12.081,8.0355-19.0334,10.1015s-14.1332,3.2911-21.0891,5.3428c-2.8169.831-5.9453,2.132-6.8797,4.915-1.1109,3.294,1.5677,6.71,4.5715,8.461c6.4402,3.755,14.3962,3.194,21.8469,2.924c18.4382-.658,37.4924,1.094,54.8197-5.239c6.0738-2.222,11.7558-5.389,17.2998-8.718c3.519-2.114,7.056-4.3497,9.693-7.4954c4.651-5.5405,5.904-13.1435,6.267-20.3658.571-11.3059,1.779-25.8301-4.062-33.5127-5.842-7.6826-13.227-4.7826-13.227-4.7826Z" fill="#c3b7db"></path><g id="eEakSsydo823_tr" transform="translate(117.994256,38.784801) rotate(0)"><g transform="translate(-117.994253,-38.784799)"><path d="M119.336,38.7848c-.339,0-.64-.2388-.709-.5814-1.848-9.008.408-18.7288,6.032-26.0031.242-.3184.702-.3737,1.017-.1315.319.2457.377.7025.132,1.0209-5.368,6.9455-7.52,16.2234-5.759,24.8231.08.391-.173.7751-.564.8547-.052.0104-.1.0173-.149.0173Z" fill="#524797"></path><path d="M127.357,0.728333c-3.239.467187-5.731,3.827447-5.34,7.076977.388,3.24949,3.502,5.90039,6.772,5.87959.703-.0035,1.416-.1177,2.053-.4118c1.633-.751,2.54-2.5228,3.021-4.25311.46-1.6438.637-3.44678-.011-5.02829-.643-1.5815-2.294-2.76158-4-2.76158l-2.495-.501787Z" fill="#e2d2cf"></path><path d="M128.751,14.4117c-3.623,0-7.032-2.9762-7.457-6.51986-.44-3.67864,2.346-7.360745,5.959-7.883298.083-.013844.17-.010382.249.006921l2.423.487948c1.955.034606,3.841,1.346179,4.602,3.211459.62,1.51921.63,3.37065.035,5.50239-.658,2.36014-1.841,3.99014-3.416,4.71684-.678.3114-1.471.4741-2.35.4776-.017,0-.031,0-.045,0ZM127.343,1.46546c-2.762.47411-4.945,3.4191-4.606,6.25335.342,2.84809,3.09,5.23939,6.014,5.23939.011,0,.021,0,.035,0c.671-.0035,1.263-.1211,1.751-.3461c1.488-.6817,2.249-2.4362,2.627-3.78589.505-1.81337.512-3.34988.017-4.5611-.547-1.3358-1.945-2.30824-3.329-2.30824-.049,0-.097-.00346-.145-.01384l-2.364-.47757Z" fill="#524797"></path><path d="M128.371,8.27594c-.304,0-.605-.13151-.81-.37375-.339-.40489-.318-1.01742.049-1.39809.27-.28377.713-.30108,1.003-.04153.08.03114.156.07267.229.12458.367.26647.526.71981.398,1.12817-.052.15918-.152.29415-.291.38758-.176.11421-.377.17304-.578.17304Z" fill="#524797"></path></g></g><g id="eEakSsydo828_tr" transform="translate(112.358972,39.708801) rotate(0)"><g transform="translate(-112.358971,-39.708799)"><path d="M111.631,39.7088c-.346,0-.65-.2457-.713-.5987-1.595-9.053-7.312-17.1785-15.2956-21.7396-.3461-.1973-.4672-.6437-.2699-.9898.2007-.3495.6436-.4706.9932-.2699C104.696,20.883,110.68,29.3857,112.348,38.8575c.069.3945-.194.7717-.589.8409-.041.0069-.083.0104-.128.0104Z" fill="#524797"></path><path d="M90.4251,6.16498c-3.2391.46718-5.7307,3.83091-5.3397,7.07702.3876,3.2495,3.4987,5.9038,6.7724,5.883.7025-.0069,1.4154-.1211,2.0522-.4153c1.6334-.7475,2.5366-2.5193,3.0211-4.2496.4603-1.6473.6368-3.4502-.0104-5.03175-.6436-1.58151-2.2944-2.75812-4.0004-2.75812l-2.4952-.50525Z" fill="#e2d2cf"></path><path d="M91.8198,19.8483c-3.6233,0-7.032-2.9761-7.4577-6.5198-.4395-3.6752,2.3463-7.36076,5.9592-7.88332.0831-.01038.1696-.00692.2492.00693l2.4259.4914c1.9518.03115,3.8378,1.34273,4.5991,3.21146.6195,1.51573.6299,3.36723.0346,5.49893-.6575,2.3636-1.841,3.9936-3.4156,4.7168-.6783.3115-1.4708.4741-2.3498.4811-.0173-.0035-.0311-.0035-.0449-.0035ZM90.4113,6.90211c-2.7616.4741-4.9452,3.41909-4.6061,6.25339.3426,2.848,3.0903,5.2428,6.0146,5.2428.0103,0,.0207,0,.0346,0c.6713-.0069,1.2631-.1211,1.751-.3495c1.4881-.6818,2.2494-2.4363,2.6266-3.7859.5053-1.8134.5122-3.3465.0174-4.56115-.5468-1.3358-1.9449-2.30824-3.3292-2.30824-.0484,0-.0969-.00346-.1453-.01384l-2.3636-.47756Z" fill="#524797"></path><path d="M91.352,14.2767c-.0934,0-.1903-.0104-.2838-.0381-.3356-.0934-.6125-.3391-.7336-.661-.1557-.4152-.0658-.8963.2457-1.2839.2492-.3114.7094-.3633,1.0209-.1107.0969.0796.1695.1765.2145.2838.1661.0899.3046.2353.3945.4187.2042.4222.1004.9067-.2491,1.1835-.1765.1385-.3876.2077-.6091.2077Z" fill="#524797"></path></g></g><path d="M78.69,78.1875c.5053,3.1353-.6402,6.3087-2.1629,9.0945-3.7132,6.814-9.8351,12.2818-17.0193,15.213-7.1843,2.928-15.3859,3.301-22.8055,1.031-6.6582-2.035-16.213-3.319-21.2102-8.1634C4.58079,84.7904,-0.752034,66.899,0.085436,51.7276C0.926368,36.5597,10.3946,18.4571,24.4759,12.7506c13.5968-5.51279,32.125-7.37461,43.9015-2.4917c17.3238,7.1843,29.6887,25.6536,33.3746,44.0365.764,3.8032-1.637,11.7695-3.7552,15.0225-1.1316,1.7407-3.3706,5.499-5.0905,6.6686-3.9036,2.6543-7.3331,3.8517-12.0534,3.8517L78.69,78.1875Z" fill="#e48764"></path><path d="M78.0572,78.7411c-.3703,0-.6887-.2837-.7233-.661-.4775-5.1909-1.623-10.3126-3.4018-15.2163-2.5608-7.0666-5.9488-11.9046-10.3645-14.7907-6.1184-3.997-14.7977-4.0455-21.5978-.1142-2.1248,1.225-3.862,2.6854-5.1598,4.3327-3.2703,4.1527-4.0074,10.2677-1.8306,15.2129c2.1317,4.8552,6.9835,8.5131,12.3544,9.3125c3.1976.481,7.205-.3807,8.4508-3.3914.1558-.3703.5814-.5468.9517-.391.3703.1522.5468.5779.391.9482-1.5434,3.7305-6.2706,4.831-10.0081,4.2738-5.8519-.8755-11.1397-4.8656-13.4722-10.1673-2.3844-5.4228-1.5711-12.1329,2.021-16.6975c1.412-1.7926,3.2876-3.3706,5.5751-4.6926c7.2638-4.1977,16.5556-4.132,23.1204.1592c4.6857,3.0627,8.264,8.1359,10.9356,15.5105c1.8203,5.0214,2.99,10.2642,3.4848,15.5797.0346.398-.2595.7545-.6575.7891-.0242.0034-.045.0034-.0692.0034Z" fill="#524797"></path><path d="M45.2598,12.0377c-.1868,0-.3703-.0692-.5121-.2111l-.2907-.2907c-.2838-.2838-.2838-.7441,0-1.0244.2837-.2837.744-.2837,1.0278,0l.2907.2873c.2837.2837.2837.744,0,1.0278-.1419.1419-.3288.2111-.5157.2111Z" fill="#524797"></path><path d="M36.0424,16.0728c-.2665,0-.5226-.1488-.6506-.4015l-.2873-.5779c-.1799-.3599-.0346-.7959.3253-.9724.3565-.1834.7925-.0381.9725.3218l.2907.5779c.1799.36.0311.796-.3253.9725-.1039.0554-.2146.0796-.3253.0796Z" fill="#524797"></path><path d="M21.9213,24.7139c-.2665,0-.5226-.1488-.6506-.4014l-.2873-.5779c-.1799-.3565-.0346-.7925.3253-.9725.3565-.1799.796-.0346.9759.3219l.2873.5779c.1799.3599.0346.796-.3253.9759-.1039.0519-.2146.0761-.3253.0761Z" fill="#524797"></path><path d="M13.5685,37.0995c-.4014,0-.7267-.3253-.7267-.7268v-.2872c0-.4014.3253-.7267.7267-.7267s.7268.3253.7268.7267v.2872c0,.4015-.3253.7268-.7268.7268Z" fill="#524797"></path><path d="M9.23137,58.1505c-.13151,0-.26301-.0346-.38067-.1108l-.88592-.5433c-.33914-.2111-.44642-.6575-.23532-1.0001s.66098-.4464,1.00012-.2353l.88245.5433c.34261.2111.44987.661.23879,1.0001-.13843.225-.37721.3461-.61945.3461Z" fill="#524797"></path><path d="M8.38115,74.2597h-.28723c-.40143,0-.72673-.3253-.72673-.7267s.3253-.7267.72673-.7267h.28723c.40143,0,.72673.3253.72673.7267s-.3253.7267-.72673.7267Z" fill="#524797"></path><path d="M16.4474,55.825c-.4014,0-.7267-.3253-.7267-.7268v-.2907c0-.4014.3253-.7267.7267-.7267.4015,0,.7268.3253.7268.7267v.2907c0,.4015-.3253.7268-.7268.7268Z" fill="#524797"></path><path d="M4.34958,48.6234h-.57793c-.40143,0-.72673-.3253-.72673-.7267c0-.4015.3253-.7268.72673-.7268h.57793c.40143,0,.72673.3253.72673.7268c0,.4014-.3253.7267-.72673.7267Z" fill="#524797"></path><path d="M12.4161,29.6107c-.1869,0-.3738-.0727-.5156-.2145l-.2873-.2873c-.2838-.2838-.2838-.744,0-1.0278s.7441-.2838,1.0278,0l.2873.2872c.2837.2838.2837.7441,0,1.0279-.1419.1418-.3253.2145-.5122.2145Z" fill="#524797"></path><path d="M24.5174,33.6424h-.2907c-.4014,0-.7267-.3253-.7267-.7268c0-.4014.3253-.7267.7267-.7267h.2907c.4015,0,.7268.3253.7268.7267c0,.4015-.3253.7268-.7268.7268Z" fill="#524797"></path><path d="M15.586,45.4534c-.1869,0-.3737-.0692-.5156-.2146l-.2873-.2872c-.2837-.2838-.2837-.744,0-1.0278.2838-.2803.7441-.2803,1.0278,0l.2873.2907c.2837.2838.2837.744,0,1.0278-.1419.1419-.3288.2111-.5122.2111Z" fill="#524797"></path><path d="M27.6876,18.3775c-.1869,0-.3738-.0727-.5157-.2146l-.2872-.2872c-.2838-.2838-.2838-.744,0-1.0278s.744-.2838,1.0278,0l.2872.2872c.2838.2838.2838.7441,0,1.0278-.1418.1419-.3287.2146-.5121.2146Z" fill="#524797"></path><path d="M42.6193,17.8481c-.1868,0-.3703-.0727-.5121-.2146l-.578-.5744c-.2837-.2838-.2837-.7441,0-1.0279.2838-.2837.7475-.2837,1.0278,0l.578.5745c.2837.2838.2837.744,0,1.0278-.1419.1419-.3288.2146-.5157.2146Z" fill="#524797"></path><path d="M34.89,27.5932c-.2665,0-.5225-.1454-.6506-.4014l-.2872-.5745c-.18-.3599-.0346-.796.3253-.9759s.7959-.0346.9724.3253l.2907.5779c.18.3565.0312.7925-.3253.9725-.1038.0519-.2145.0761-.3253.0761Z" fill="#524797"></path><path d="M55.3439,14.9204c-.4014,0-.7267-.3253-.7267-.7268v-.2907c0-.3979.3253-.7267.7267-.7267.4015,0,.7267.3288.7267.7267v.2907c0,.4015-.3252.7268-.7267.7268Z" fill="#524797"></path><path d="M49.582,20.3916h-.5779c-.398,0-.7268-.3253-.7268-.7267s.3288-.7267.7268-.7267h.5779c.4014,0,.7267.3253.7267.7267s-.3253.7267-.7267.7267Z" fill="#524797"></path><path d="M64.8554,14.3425h-.5779c-.4014,0-.7267-.3253-.7267-.7267s.3253-.7268.7267-.7268h.5779c.4015,0,.7268.3253.7268.7268s-.3253.7267-.7268.7267Z" fill="#524797"></path><path d="M55.631,12.0376c-.4014,0-.7267-.3253-.7267-.7267v-.2872c0-.4015.3253-.7268.7267-.7268s.7268.3253.7268.7268v.2872c0,.4014-.3219.7267-.7268.7267Z" fill="#524797"></path><path d="M13.8558,84.6312h-.2873c-.4014,0-.7267-.3253-.7267-.7267c0-.4015.3253-.7268.7267-.7268h.2873c.4014,0,.7267.3253.7267.7268c0,.4014-.3253.7267-.7267.7267Z" fill="#524797"></path><path d="M3.48389,66.1931c-.18687,0-.37375-.0692-.51563-.2111-.28377-.2873-.28377-.7441.00346-1.0278l.28723-.2873c.28377-.2837.74403-.2837,1.0278,0c.28377.2838.28377.7441,0,1.0244l-.29069.2907c-.14188.1419-.32876.2111-.51217.2111Z" fill="#524797"></path><path d="M12.4154,65.9057c-.2665,0-.5225-.1454-.6506-.4014l-.2872-.5745c-.18-.3599-.0346-.796.3253-.9759.3564-.18.7925-.0346.9724.3253l.2907.5745c.1765.3599.0311.7959-.3253.9759-.1038.0519-.2146.0761-.3253.0761Z" fill="#524797"></path><path d="M10.1112,47.471h-.29072c-.39797,0-.72673-.3253-.72673-.7267s.32876-.7267.72673-.7267h.29072c.4014,0,.7267.3253.7267.7267s-.3253.7267-.7267.7267Z" fill="#524797"></path><path d="M39.7857,67.6325c-.1869,0-.3703-.0692-.5122-.2111l-.2872-.2872c-.2838-.2838-.2838-.744,0-1.0278s.7405-.2838,1.0243,0l.2907.2872c.2838.2838.2838.744,0,1.0278-.1419.1419-.3288.2111-.5156.2111Z" fill="#524797"></path><path d="M37.1934,58.9914c-.1868,0-.3737-.0692-.5156-.2111l-.2872-.2907c-.2838-.2838-.2838-.744,0-1.0243.2837-.2838.744-.2838,1.0278,0l.2872.2872c.2838.2838.2838.744,0,1.0278-.1419.1419-.3253.2111-.5122.2111Z" fill="#524797"></path><path d="M48.1425,69.0757h-.5779c-.4014,0-.7267-.3253-.7267-.7268c0-.4014.3253-.7267.7267-.7267h.5779c.4015,0,.7268.3253.7268.7267c0,.4015-.3253.7268-.7268.7268Z" fill="#524797"></path><path d="M44.6854,72.5328h-.2907c-.398,0-.7267-.3288-.7267-.7267c0-.4015.3287-.7268.7267-.7268h.2907c.4014,0,.7267.3253.7267.7268c0,.3979-.3253.7267-.7267.7267Z" fill="#524797"></path><path d="M44.9727,61.5834c-.1868,0-.3703-.0692-.5121-.2111l-.2907-.2872c-.2838-.2838-.2838-.744,0-1.0278s.744-.2838,1.0278,0l.2872.2872c.2838.2838.2838.7441.0035,1.0278-.1419.1419-.3288.2111-.5157.2111Z" fill="#524797"></path><path d="M41.5156,63.6009h-.5779c-.4015,0-.7268-.3253-.7268-.7267s.3253-.7267.7268-.7267h.5779c.4014,0,.7267.3253.7267.7267s-.3253.7267-.7267.7267Z" fill="#524797"></path><path d="M42.668,51.7899c-.1868,0-.3737-.0692-.5156-.2111l-.2872-.2873c-.2838-.2837-.2838-.744,0-1.0278.2837-.2837.744-.2837,1.0278-.0034l.2872.2907c.2838.2837.2838.744,0,1.0278-.1419.1419-.3253.2111-.5122.2111Z" fill="#524797"></path><path d="M52.127,56.7385c-.1869,0-.3738-.0726-.5191-.218l-.571-.5779c-.2838-.2872-.2804-.7475.0069-1.0278.2837-.2838.744-.2803,1.0278.0069l.571.5779c.2838.2873.2803.7475-.0069,1.0278-.1419.1419-.3253.2111-.5087.2111Z" fill="#524797"></path><path d="M49.8692,62.4486c-.1834,0-.3703-.0693-.5122-.2111l-.2907-.2907c-.2837-.2838-.2837-.7441,0-1.0244.2838-.2837.7441-.2837,1.0278,0l.2907.2873c.2838.2803.2838.7405,0,1.0243-.1418.1453-.3287.2146-.5156.2146Z" fill="#524797"></path><path d="M41.488,57.2784c-.263,0-.5191-.1454-.6471-.398l-.2942-.5744c-.1799-.3565-.038-.796.3184-.9759.3565-.1835.796-.0381.9759.3183l.2942.5745c.1834.3564.0415.7925-.3184.9759-.1038.0519-.218.0796-.3288.0796Z" fill="#524797"></path><path d="M49.5822,50.6375c-.4014,0-.7267-.3253-.7267-.7267v-.5745c0-.4014.3253-.7267.7267-.7267s.7267.3253.7267.7267v.5745c0,.4014-.3253.7267-.7267.7267Z" fill="#524797"></path><path d="M47.5646,56.6866c-.4014,0-.7267-.3253-.7267-.7268v-.2872c0-.4014.3253-.7267.7267-.7267.4015,0,.7268.3253.7268.7267v.2872c0,.4015-.3253.7268-.7268.7268Z" fill="#524797"></path><path d="M56.4963,58.7042c-.4015,0-.7268-.3253-.7268-.7267v-.2873c0-.4014.3253-.7267.7268-.7267s.7267.3253.7267.7267v.2873c0,.4014-.3253.7267-.7267.7267Z" fill="#524797"></path><path d="M55.0566,50.6374h-.5779c-.4014,0-.7267-.3253-.7267-.7267s.3253-.7267.7267-.7267h.5779c.4014,0,.7267.3253.7267.7267s-.3253.7267-.7267.7267Z" fill="#524797"></path><path d="M61.6916,52.3504c-.0657,0-.135-.0104-.2007-.0277-.2976-.0865-.5572-.2976-.706-.5848s-.173-.6195-.0692-.9136c.135-.3772.5468-.5779.9275-.443.2906.1004.4741.3703.4844.661.2319.1765.3461.481.2596.7786-.09.3184-.3807.5295-.6956.5295Z" fill="#524797"></path></svg>