<svg xmlns="http://www.w3.org/2000/svg" xmlns:xlink="http://www.w3.org/1999/xlink" id="eQpzG2ObMUW1" viewBox="0 0 210 213"><style><![CDATA[#eQpzG2ObMUW26_tr {animation: eQpzG2ObMUW26_tr__tr 3000ms linear infinite normal forwards}@keyframes eQpzG2ObMUW26_tr__tr { 0% {transform: translate(134.317px,158.96022px) rotate(0deg);animation-timing-function: cubic-bezier(0.42,0,0.58,1)} 26.666667% {transform: translate(134.317px,158.96022px) rotate(-4deg);animation-timing-function: cubic-bezier(0.42,0,0.58,1)} 50% {transform: translate(134.317px,158.96022px) rotate(-1deg);animation-timing-function: cubic-bezier(0.42,0,0.58,1)} 73.333333% {transform: translate(134.317px,158.96022px) rotate(-3deg);animation-timing-function: cubic-bezier(0.42,0,0.58,1)} 100% {transform: translate(134.317px,158.96022px) rotate(0deg)}} #eQpzG2ObMUW114_tr {animation: eQpzG2ObMUW114_tr__tr 3000ms linear infinite normal forwards}@keyframes eQpzG2ObMUW114_tr__tr { 0% {transform: translate(34.459946px,33.648613px) rotate(0deg)} 43.333333% {transform: translate(34.459946px,33.648613px) rotate(-5deg)} 100% {transform: translate(34.459946px,33.648613px) rotate(0deg)}}]]></style><path d="M111.497,118.814c0-.013,0-.028,0-.041c0-.008,0-.013,0-.021c0-.002,0-.008.003-.01c0-.003,0-.018,0-.005c0-.013,0-.024-.008-.036-.005-.011-.018-.021-.031-.021-.013-.005-.026-.003-.036.005s-.023.018-.023.031c-.005.065-.005.127.005.189.003.012.005.025.015.033.008.01.024.016.037.016.023-.003.051-.024.046-.052s-.008-.057-.008-.088Z" fill="#fcaf67"></path><path d="M111.799,118.487c0-.029-.028-.049-.051-.049-.029.002-.047.025-.047.051-.005.114,0,.227.013.341.003.026.023.046.052.046.023,0,.051-.025.046-.051-.013-.111-.018-.225-.013-.338Z" fill="#fcaf67"></path><path d="M112.132,118.776c0-.003,0-.006-.002-.011v-.002c0-.005,0-.013-.003-.021c0-.013,0-.028-.002-.041c0-.013,0-.029,0-.042c0-.007,0-.012.002-.02c0,0,0-.016,0-.008s0-.005,0-.005c0-.016,0-.026-.005-.039-.008-.01-.021-.021-.033-.021-.011-.002-.026-.002-.037.006-.01.007-.02.018-.02.031-.008.069-.005.134.007.201.003.013.013.026.024.028.01.008.026.011.038.006.011-.006.024-.013.029-.024.005-.013.005-.025.002-.038Z" fill="#fcaf67"></path><path d="M111.46,117.983c.003-.026-.026-.049-.049-.049-.031.003-.046.023-.049.052-.005.09-.003.178.008.266.002.025.023.049.051.046.026-.002.052-.023.049-.052-.013-.087-.015-.175-.01-.263Z" fill="#fcaf67"></path><path d="M111.88,117.983c0-.005.003-.013.003-.021.003-.013.005-.028.008-.041.007-.026-.011-.055-.036-.06-.026-.005-.052.011-.06.039-.013.059-.018.124-.01.189.002.01.008.023.015.033.008.008.024.013.037.013.023-.003.049-.023.046-.052-.003-.028-.005-.056-.003-.087c0-.003,0-.006,0-.011c0,0,0,0,0-.002Z" fill="#fcaf67"></path><path d="M112.608,118.576c-.031.003-.047.024-.049.052-.006.083-.011.168-.016.25-.002.026.026.052.052.047.028,0,.044-.021.046-.049.005-.085.011-.168.016-.253.002-.026-.026-.049-.049-.047Z" fill="#fcaf67"></path><path d="M112.288,118.125c-.028-.006-.054.01-.059.036-.013.054-.018.111-.011.165.003.013.006.023.016.033.01.008.023.016.036.013.026-.002.052-.023.049-.051-.005-.026-.005-.054-.002-.083.002-.018.002-.039.007-.054.006-.026-.01-.054-.036-.059Z" fill="#fcaf67"></path><path d="M112.929,118.512c-.028.005-.046.026-.046.052v.227c0,.026.026.049.051.047.026,0,.047-.024.047-.05v-.227c0-.026-.026-.049-.052-.049Z" fill="#fcaf67"></path><path d="M112.719,118.058c.002-.013-.008-.026-.016-.034s-.023-.015-.036-.013c-.013,0-.026.005-.034.016-.007.01-.012.02-.012.036-.006.062-.006.126.005.188.002.013.005.024.015.034.008.008.023.015.036.013.024-.003.052-.023.047-.052-.008-.062-.01-.124-.005-.188Z" fill="#fcaf67"></path><path d="M113.069,117.908c.002-.013-.005-.028-.013-.036-.01-.008-.023-.013-.039-.013-.01.002-.023.008-.033.015-.008.011-.011.024-.011.037-.007.067-.005.134.005.201c0,.013.003.026.013.033.011.011.024.016.036.016.026-.003.052-.023.05-.052-.011-.067-.013-.134-.008-.201Z" fill="#fcaf67"></path><path d="M112.893,117.205c-.029,0-.049.024-.049.052v.175c0,.026.026.05.051.047.029-.003.049-.023.049-.052v-.175c0-.026-.025-.049-.051-.047Z" fill="#fcaf67"></path><path d="M112.491,117.479c0,0,0,0,0-.002c0-.003,0-.008,0-.011.003-.018.005-.033.008-.051.005-.023-.01-.054-.036-.057-.026-.005-.054.008-.06.036-.012.07-.015.142-.01.214.005.026.023.05.052.047.026-.003.051-.023.046-.052-.002-.031-.002-.064-.002-.098.002-.008.002-.015.002-.026Z" fill="#fcaf67"></path><path d="M111.599,117.391c.002-.025-.029-.049-.052-.046-.028,0-.044.021-.046.049-.008.085-.006.168.005.253.002.026.023.049.051.046.026-.002.049-.023.047-.051-.01-.083-.01-.168-.005-.251Z" fill="#fcaf67"></path><path d="M112.038,117.34c.003-.026-.026-.049-.049-.047-.031.003-.046.023-.049.052-.005.075-.002.15.005.227.003.026.024.049.052.046.026-.002.049-.023.046-.051-.007-.075-.01-.152-.005-.227Z" fill="#fcaf67"></path><path d="M111.528,116.622c0-.026-.023-.049-.049-.047-.026,0-.052.024-.049.052.01.114.018.227.026.341.005.026.026.049.051.046.029,0,.049-.023.049-.051-.01-.114-.018-.228-.028-.341Z" fill="#fcaf67"></path><path d="M112.945,116.549c-.026.003-.047.024-.047.052v.214c0,.026.026.049.052.047.026,0,.047-.023.047-.052v-.211c0-.026-.026-.052-.052-.05Z" fill="#fcaf67"></path><path d="M113.268,116.209c0,.013,0,0,0-.003-.003-.002-.003-.007-.003-.013-.002-.007-.002-.012-.002-.02-.003-.016-.006-.031-.006-.047c0-.015,0-.028,0-.044c0-.007,0-.012.003-.02c0-.005,0-.008,0-.013c0-.003,0-.003,0-.003s0,0,0-.002c.003-.013.003-.024-.005-.036-.008-.011-.021-.021-.031-.021-.013-.003-.026-.003-.036.005-.013.008-.021.018-.023.031-.008.072-.006.142.007.214.003.011.016.024.023.029.011.007.026.007.039.005.011-.005.023-.013.029-.023.005-.013.005-.026.005-.039Z" fill="#fcaf67"></path><path d="M111.458,115.578c-.003-.025-.024-.049-.052-.049-.026.005-.049.026-.046.052.005.08.01.16.018.24.002.026.023.052.051.049.024-.002.049-.026.047-.052-.005-.08-.013-.16-.018-.24Z" fill="#fcaf67"></path><path d="M113.23,118.664c-.026.003-.046.023-.046.052v.263c0,.026.025.052.051.049.026-.002.047-.023.047-.051v-.264c0-.028-.026-.051-.052-.049Z" fill="#fcaf67"></path><path d="M113.372,117.949c-.029-.005-.052.01-.059.036-.024.07-.031.142-.026.214.002.026.023.052.051.047.026,0,.049-.024.047-.052-.003-.015-.003-.031-.003-.049c0-.008.003-.016.003-.023c0-.003,0-.003,0-.003s0,0,0-.002c0-.003,0-.008,0-.013.005-.034.013-.065.023-.096.008-.026-.013-.054-.036-.059Z" fill="#fcaf67"></path><path d="M113.626,116.824c-.021-.013-.054-.006-.065.02-.044.098-.077.202-.095.31-.005.023.01.054.036.057.026.005.054-.008.059-.036.011-.052.021-.101.037-.15.015-.049.028-.088.049-.137.01-.021.005-.054-.021-.064Z" fill="#fcaf67"></path><path d="M111.083,118.184c-.003-.026-.021-.049-.052-.049-.023.002-.049.026-.046.051.018.153.036.302.056.455.003.026.024.049.049.046.026,0,.052-.023.049-.049-.02-.152-.036-.304-.056-.454Z" fill="#fcaf67"></path><path d="M110.978,117.365c-.003-.013-.006-.026-.016-.034-.008-.01-.023-.015-.036-.015-.023.002-.052.026-.046.052.01.064.02.126.028.191.003.013.005.023.015.033.008.008.024.016.037.013.023-.002.051-.023.046-.052-.008-.062-.018-.126-.028-.188Z" fill="#fcaf67"></path><path d="M110.857,116.537c-.024-.111-.049-.22-.073-.331-.007-.026-.038-.039-.062-.031-.028.008-.038.036-.033.062.023.108.049.217.072.328.008.026.039.039.062.031.028-.008.039-.034.034-.059Z" fill="#fcaf67"></path><g id="eQpzG2ObMUW26_tr" transform="translate(134.317,158.96022) rotate(0)"><g transform="translate(-134.316998,-158.96022)"><path d="M137.208,165.281c3.445-2.677,6.732-3.225,10.54-2.375.152.033.284.07.429.111l.01.008c1.503.366,3.075.924,4.784,1.68.403.184.801.362,1.232.55l.008.006c1.856.875,3.867,1.915,6.09,3.09c2.043,1.079,4.098,2.164,6.2,3.14l.007.007c1.932.912,3.891,1.743,5.895,2.404c1.231.406,2.479.749,3.733.997c1.704.33,3.45.521,5.221.467.16-.002.323.011.491,0c3.831-.15,7.937-1.941,11.838-5.063c1.706-1.355,3.367-2.977,4.952-4.823.917-1.074,1.805-2.213,2.654-3.421.158-.222.32-.455.468-.684.005-.011.005-.011.012-.021c1.095-1.614,2.071-3.269,2.946-4.965l.006-.01c.395-.806.795-1.624,1.151-2.458.253-.586.498-1.18.726-1.772.736-1.866,1.329-3.777,1.792-5.708.064-.215.103-.434.157-.656.062-.315.139-.651.204-.968.398-1.96.656-3.948.744-5.926.273-4.634-.29-9.238-1.655-13.599-.251-.756-.519-1.523-.819-2.269-.356-.974-.759-1.94-1.208-2.905-.431-.924-.909-1.869-1.41-2.799-.41-.754-.847-1.508-1.296-2.246-.467-.793-.971-1.578-1.49-2.337-1.027-1.518-2.12-2.982-3.302-4.363-.659-.811-1.335-1.593-2.04-2.337-.191-.204-.359-.395-.545-.584-.289-.304-.575-.596-.872-.875-.269-.276-.553-.547-.834-.805-.976-.933-1.973-1.795-2.995-2.6-.543-.442-1.08-.85-1.63-1.2372-1.257-.8856-2.514-1.6834-3.795-2.3702-.449-.2427-.901-.4622-1.335-.6662-2.086-.9785-4.121-1.6188-6.07-1.9054-2.301-.3486-4.472-.2169-6.476.395-.575.1601-1.138.3847-1.673.63-1.626.7333-3.064,1.7893-4.324,3.026-1.072,1.051-2.001,2.249-2.802,3.491-1.472,2.316-2.479,4.818-3.021,7.067-.031.124-.051.237-.075.351-.041.16-.064.317-.103.477-.052.238-.095.483-.126.736-.292,1.645-.372,3.238-.261,4.761.049.568.119,1.126.214,1.668.483,2.683,1.627,5.082,3.382,6.982c2.239,2.445,5.402,4.007,9.12,4.575.509.098,1.046.158,1.577.201.233.019.455.031.687.05.462.023.938.025,1.402.02.23.003.475.003.718-.015.651-.018,1.309-.075,1.983-.15.984-.103,1.98-.269,2.998-.504.402-.077.792-.18,1.182-.281l.005-.01c.026.005.044.002.075-.005.026-.013.041-.016.065-.026.328-.075.65-.166.945-.277.144-.041.289-.082.428-.116.145-.041.282-.09.416-.142.297-.093.584-.209.849-.341.341-.178.646-.384.92-.609.095-.077.178-.15.266-.232.082-.057.144-.129.209-.199.095-.093.196-.194.286-.305.274-.328.504-.674.677-1.04.051-.096.093-.197.137-.297.046-.109.087-.212.121-.318.031-.108.072-.224.103-.33.328-1.144.295-2.412-.191-3.651-.41-1.041-1.051-1.898-1.877-2.551l-.01-.005c-1.601-1.317-3.801-1.826-5.82-1.154-.168.056-.32.108-.483.152-.152.052-.312.098-.467.132-.152.054-.307.087-.462.124-.158.036-.295.067-.449.103-.179.046-.367.09-.538.126-.173.039-.335.067-.516.101l-.01-.008c-1.136.197-2.13.235-2.959.199-.186,0-.367-.013-.54-.033-.077-.011-.147-.016-.214-.021-.165-.016-.313-.031-.452-.057-.392-.059-.909-.596-1.293-1.389-.427-.893-.674-2.122-.359-3.39.224-.914.637-1.893,1.221-2.783.891-1.428,2.174-2.662,3.674-3.109c1.214-.387,2.585-.261,4.02.694.501.336,1.03.71,1.578,1.126.552.403,1.125.865,1.699,1.34.805.669,1.624,1.392,2.432,2.192.617.581,1.226,1.196,1.833,1.854.749.803,1.487,1.642,2.202,2.536c1.756,2.163,3.37,4.572,4.653,7.167.684,1.366,1.263,2.783,1.725,4.24.144.433.26.862.372,1.301.142.519.25,1.058.356,1.611.346,1.805.493,3.672.465,5.562-.034,1.482-.179,2.984-.437,4.479-.346,2.053-.906,4.103-1.675,6.119-1.038,2.727-2.443,5.366-4.196,7.875-.558.793-1.116,1.526-1.678,2.2-1.586,1.906-3.143,3.339-4.519,4.351-.015.002-.015.002-.023.013-1.805,1.314-3.313,1.957-4.255,2.063-.075.002-.15.007-.199.018-2.071.087-4.338-.512-6.754-1.449-.274-.106-.53-.214-.803-.335-1.446-.599-2.944-1.322-4.47-2.11-.327-.17-.661-.333-.988-.506-.044-.018-.083-.046-.127-.062-.7-.364-1.384-.728-2.084-1.108-1.549-.815-3.165-1.68-4.869-2.504-.452-.217-.906-.436-1.358-.638-1.144-.547-2.329-1.064-3.532-1.549-.444-.168-.881-.33-1.322-.501l-.011-.005c-1.409-.504-2.835-.942-4.291-1.276-2.042-.485-4.126-.766-6.24-.779-1.872.01-3.752.217-5.647.718-2.9.748-5.82,2.13-8.727,4.391-2.486,1.937,5.231,11.191,7.717,9.241Z" fill="#fb8840"></path><path d="M186.023,118.014l.01.005c.827.655,1.47,1.523,1.878,2.556.485,1.237.519,2.504.191,3.645-.465,1.687-1.741,3.091-3.561,3.685-.279.093-.552.178-.844.25-.302.106-.622.202-.953.274-.039.013-.083.039-.139.041-.398.109-.79.21-1.183.292l-.01-.005c-1.01.235-2.009.392-2.988.501-.676.082-1.334.137-1.993.15-.958.038-1.887.018-2.796-.057-.54-.041-1.066-.101-1.585-.196-3.171-3.057-1.309-7.702,1.066-11.472.351.062.759.096,1.206.114.829.036,1.828-.006,2.959-.197.896-.149,1.866-.384,2.928-.733c2.019-.671,4.219-.168,5.814,1.147Z" fill="#270002"></path><path d="M148.176,163.017l.008.008c1.505.367,3.077.924,4.787,1.681.403.183.798.361,1.229.55-.062-.713-.104-1.433-.145-2.156-.002-.018-.002-.018.005-.026-.01-.008-.01-.008-.01-.008.01-.18.013-.366.008-.544.013-.408.026-.819.057-1.232.051-.731.113-1.454.216-2.174.104-.767.243-1.536.398-2.293.057-.222.111-.444.158-.656.015-.062.023-.116.033-.149.08-.321.17-.633.269-.938.162-.537.343-1.061.539-1.588-.444-.167-.88-.33-1.324-.5l-.011-.006c-1.407-.503-2.832-.942-4.288-1.275-1.299,3.612-1.944,7.467-1.929,11.306Z" fill="#270002"></path><path d="M166.5,171.491l.01.008c1.929.911,3.889,1.743,5.892,2.404-.013-.127-.028-.266-.041-.393-.003-.16-.021-.317-.023-.48-.005-.015-.005-.015-.008-.031.008-.01.008-.01.008-.01.013-.326.015-.641.028-.966.044-.718.106-1.441.165-2.166.142-1.779.282-3.561.421-5.342.067-.834.132-1.686.199-2.52.008-.011-.002-.016.005-.026-1.443-.599-2.943-1.322-4.469-2.109-.328-.171-.661-.334-.986-.507-.047-.018-.086-.046-.132-.061-.057.203-.101.431-.147.66-.165.997-.189,2.038-.271,3.034-.153,2.045-.315,4.085-.486,6.135-.062.767-.126,1.575-.165,2.37Z" fill="#270002"></path><path d="M193.512,170.215c.056.023.106.06.17.088c1.704-1.355,3.367-2.977,4.952-4.823-.459-.106-.95-.106-1.407.008-.219-.098-.439-.197-.653-.302-.15-.075-.3-.168-.455-.235-.01-.006-.01-.006-.02-.013-.287-.189-.581-.367-.868-.555-.56-.393-1.11-.824-1.629-1.278-.121-.114-.253-.235-.374-.349-.029-.021-.155-.152-.225-.217-.062-.075-.137-.155-.155-.168-.124-.131-.232-.266-.348-.39-.488-.56-.927-1.143-1.34-1.75-.099-.145-.184-.292-.284-.436-.024-.029-.037-.052-.05-.075-.16-.287-.309-.566-.451-.855-.251-.509-.478-1.03-.669-1.557-1.588,1.906-3.142,3.339-4.518,4.351.872,1.714,1.99,3.31,3.343,4.712c1.503,1.539,3.114,2.801,4.981,3.844Z" fill="#270002"></path><path d="M195.582,147.234c2.383,1.665,5.009,3.008,7.738,3.935c1.025.346,2.146.731,3.282.981.736-1.867,1.327-3.777,1.789-5.709-1.466-.193-2.404-.565-3.984-1.172-.772-.299-1.544-.64-2.285-1.004-.379-.178-.744-.38-1.11-.579-.194-.093-.279-.155-.279-.155-.142-.085-.276-.162-.418-.25-1.072-.653-2.079-1.376-3.055-2.166-.348,2.052-.906,4.102-1.678,6.119Z" fill="#270002"></path><path d="M196.873,129.462c.356-.137.72-.286,1.081-.449c1.606-.723,3.15-1.585,4.625-2.528c1.577-1.012,3.064-2.179,4.443-3.462-.356-.974-.762-1.937-1.208-2.905-.431-.924-.909-1.869-1.41-2.799-1.624,1.733-3.493,3.22-5.703,4.656-.122.072-.207.129-.235.152-.142.075-.271.157-.411.232-.356.199-.705.385-1.064.566-.63.322-1.267.612-1.915.878-.104.043-.199.077-.303.118.687,1.366,1.266,2.786,1.728,4.24.144.434.261.865.372,1.301Z" fill="#270002"></path><path d="M159.341,115.93c1.714.439,3.47.695,5.27.762c2.215.101,4.435.002,6.628-.32.188-.024.387-.06.586-.078-.426-.891-.674-2.122-.359-3.39.222-.911.637-1.892,1.221-2.783-.121.031-.256.054-.385.075-.829.17-1.67.299-2.515.413-.888.111-1.791.183-2.69.23-.204,0-.398.01-.602.01-.074.005-.123.013-.149.01c0,0-.018.003-.101,0-.4-.007-.793-.023-1.195-.046-.891-.049-1.777-.124-2.66-.269-.441-.067-.873-.152-1.304-.24-.183-.044-.387-.085-.573-.129-.062-.015-.098-.026-.132-.036c0,0-.02-.013-.093-.034-.152-.051-.312-.09-.457-.149-.041.157-.064.315-.105.475-.052.237-.093.482-.127.735-.289,1.645-.369,3.238-.258,4.764Z" fill="#270002"></path><path d="M175.492,108.746c.026-.049.049-.093.064-.118-.02.038-.041.079-.061.118-.003,0-.003,0-.003,0Z" fill="#270002"></path><path d="M180.379,107.706c.501.336,1.031.713,1.578,1.126c1.616-3.777,2.432-7.831,2.313-11.9337-2.086-.9786-4.12-1.6163-6.07-1.9081.06.4493.101.8831.137,1.3272.031.3847.047.7565.062,1.1438-.002.0413,0,.0593.008.0903-.003.1291,0,.2479-.003.3744-.028,1.3555-.168,2.7031-.405,4.0251-.072.369-.15.746-.238,1.118-.025.142-.069.284-.103.434-.005.01-.005.01-.013.018-.204.64-.387,1.291-.632,1.929-.197.524-.411,1.053-.654,1.564c1.214-.39,2.585-.263,4.02.692Z" fill="#270002"></path><path d="M190.125,116.754c2.631-1.771,5.097-3.899,6.979-6.473.445-.612.852-1.252,1.214-1.908-.658-.811-1.338-1.593-2.042-2.334-.189-.207-.357-.398-.543-.586-.289-.305-.578-.594-.872-.876-.269-.273-.553-.547-.834-.803-.561,1.369-.904,1.981-1.815,3.174-1.619,2.156-3.716,3.844-6.122,5.417.617.58,1.226,1.195,1.83,1.853.752.803,1.488,1.642,2.205,2.536Z" fill="#270002"></path></g></g><path d="M0.003303,185.914c-.01291.41.01291.834.061967,1.26.064549.797.216883,1.595.392455,2.37.821055,3.511,2.349565,7.03,5.241345,9.321c2.21014,1.753,5.02703,2.613,7.79493,3.315.0232,0,.0361.01.0619.01c1.5027.377,3.3849.728,5.5331,1.03c1.7299.256,3.6251.47,5.6467.667c1.6654.167,3.4082.315,5.2156.446c1.8176.134,3.6999.243,5.5821.341c1.2755.059,2.5406.119,3.8161.155c2.8531.111,5.6829.157,8.3733.157c9.4602,0,17.1544-.627,17.8618-2.055.7953-1.598-6.0753-28.479-9.4111-37.567-1.1-3.013-3.4366-9.822-6.6279-7.648-3.1706,2.164-6.8112,5.433-8.3009,7.95-.1524.256-.3047.496-.4674.751-.9734,1.622-2.0474,3.22-3.2222,4.756-.6688.896-1.3891,1.779-2.1353,2.626-1.6912,1.937-3.5476,3.728-5.5692,5.265-.9089.702-1.8565,1.342-2.8428,1.936-1.8822,1.136-3.8884,2.045-6.0107,2.675-.9244.266-1.8823.496-2.8557.653-1.9958.326-4.1672.351-6.0494-.279-.834-.255-1.5931-.653-2.27473-1.185-1.11024-.883-1.94421-2.143-3.27133-2.7-2.04748-.883-4.53389.377-5.659613,2.251-.074876.121-.139425.243-.201391.374-.175572.365-.314997.729-.415693,1.103-.178154.653-.25303,1.332-.26594,2.022Z" fill="#fb8840"></path><path d="M0.003303,185.913c-.01291.411.01291.834.061967,1.26.064549.798.216883,1.596.392455,2.371.821055,3.511,2.349565,7.03,5.241345,9.32c2.21014,1.754,5.02703,2.613,7.79493,3.316.5551-1.054-.9993-3.243-1.3013-3.814-1.4666-2.675-1.5802-5.215-1.415-8.809.0878-1.875,1.087-3.644,1.3143-5.508-.834-.255-1.5931-.653-2.27473-1.185-1.11024-.883-1.94421-2.143-3.27133-2.701-2.04748-.883-4.53389.377-5.659613,2.252-.074876.121-.139425.243-.201391.374-.175572.364-.314997.728-.415693,1.103-.178154.653-.25303,1.332-.26594,2.021Z" fill="#f7e8c7"></path><path d="M0.269531,183.892c.617085-.217,1.185109-.387,1.716989-.508c2.66457-.581,4.30668-.122,4.3325-.109.32791.098.68164-.072.79524-.4.08779-.315-.08779-.653-.41569-.762-.1007-.023-1.71958-.482-4.34541-.023-.45442.083-.94757.194-1.466545.325-.074876.122-.139424.243-.201391.375-.175571.364-.314997.728-.415693,1.102Z" fill="#270002"></path><path d="M0.003303,185.914c-.01291.41.01291.834.061967,1.26.570609-.196,1.09991-.341,1.59306-.462c2.66456-.581,4.30668-.132,4.3325-.122.3279.111.68163-.072.79524-.384.08778-.318-.08779-.667-.4157-.765-.10328-.023-1.71957-.495-4.34541-.023-.61966.096-1.288385.266-2.021657.496Z" fill="#270002"></path><path d="M29.8516,179.063c2.7652,1.211,5.4556,2.577,7.1881,3.837c4.0149,2.928,2.4864-4.017-1.6189-9.101-1.6912,1.936-3.5476,3.728-5.5692,5.264Z" fill="#270002"></path><path d="M19.0898,203.221c1.7299.256,3.6251.47,5.6468.666-.5707-2.071-1.0251-4.165-1.0741-5.688-.1266-3.498-3.4857.496-4.5727,5.022Z" fill="#270002"></path><path d="M29.9492,204.333c1.8177.134,3.6999.243,5.5822.341-.5293-1.975-.9476-3.958-.9967-5.412-.1394-3.509-3.4985.522-4.5855,5.071Z" fill="#270002"></path><path d="M39.3516,204.829c2.853.111,5.6828.157,8.3732.157-1.5776-2.964-3.0441-6.148-3.6121-8.471-1.1877-4.779-4.6863,1.792-4.7611,8.314Z" fill="#270002"></path><path d="M20.9961,183.675c1.8177,1.743,3.5114,3.571,4.4822,5.058c2.3135,3.486,3.2455-2.505,1.5286-7.733-1.8823,1.136-3.8884,2.045-6.0108,2.675Z" fill="#270002"></path><path d="M37.5547,171.173c2.0965.556,4.1053,1.222,5.4944,1.911c3.4856,1.743,1.4897-3.22-2.2721-6.667-.9734,1.622-2.0475,3.22-3.2223,4.756Z" fill="#270002"></path><path d="M188.602,185.914c.013.41-.013.834-.065,1.26-.062.797-.214,1.595-.39,2.37-.821,3.511-2.349,7.03-5.241,9.321-2.213,1.753-5.027,2.613-7.795,3.315-.026,0-.036.01-.062.01-1.502.377-3.385.728-5.533,1.03-1.73.256-3.625.473-5.647.667-1.667.167-3.41.315-5.215.446-1.82.134-3.7.243-5.585.341-1.275.059-2.538.119-3.813.155-2.853.111-5.686.157-8.374.157-9.462,0-17.154-.627-17.861-2.055-.796-1.598,6.075-28.479,9.411-37.567c1.1-3.013,1.727-7.741,5.53-7.072c3.424.591,7.909,4.857,9.401,7.374.15.256.302.496.465.751.973,1.622,2.047,3.22,3.22,4.756.671.896,1.391,1.779,2.137,2.626c1.692,1.937,3.548,3.728,5.57,5.265.908.702,1.856,1.342,2.842,1.936c1.883,1.136,3.891,2.045,6.011,2.675.924.266,1.882.496,2.856.653c1.996.326,4.167.351,6.049-.279.834-.255,1.591-.653,2.275-1.185c1.113-.883,1.944-2.143,3.271-2.7c2.045-.883,4.534.377,5.657,2.251.078.121.14.243.204.374.176.365.315.729.416,1.103.178.653.253,1.332.266,2.022Z" fill="#fb8840"></path><path d="M188.602,185.913c.013.411-.013.834-.065,1.26-.062.798-.214,1.596-.39,2.371-.821,3.511-2.349,7.03-5.241,9.32-2.213,1.754-5.027,2.613-7.795,3.316-.555-1.054.999-3.243,1.301-3.814c1.467-2.675,1.578-5.215,1.415-8.809-.09-1.875-1.087-3.644-1.314-5.508.834-.255,1.59-.653,2.275-1.185c1.112-.883,1.944-2.143,3.271-2.701c2.045-.883,4.534.377,5.657,2.252.077.121.139.243.204.374.176.364.315.728.416,1.103.178.653.253,1.332.266,2.021Z" fill="#f7e8c7"></path><path d="M188.336,183.892c-.617-.217-1.188-.387-1.717-.508-2.665-.581-4.307-.122-4.333-.109-.327.098-.681-.072-.795-.4-.088-.312.088-.653.416-.762.101-.023,1.72-.482,4.345-.023.455.083.948.194,1.467.325.075.122.137.243.199.375.178.364.317.728.418,1.102Z" fill="#270002"></path><path d="M188.602,185.914c.013.41-.013.834-.064,1.26-.568-.196-1.098-.341-1.591-.462-2.664-.581-4.307-.132-4.332-.122-.328.111-.682-.072-.796-.384-.087-.318.088-.667.416-.765.101-.023,1.717-.495,4.345-.023.62.096,1.291.266,2.022.496Z" fill="#270002"></path><path d="M158.754,179.063c-2.765,1.211-5.455,2.577-7.188,3.837-4.015,2.928-2.486-4.017,1.619-9.101c1.691,1.936,3.548,3.728,5.569,5.264Z" fill="#270002"></path><path d="M169.514,203.221c-1.73.256-3.625.47-5.647.666.571-2.071,1.025-4.165,1.074-5.688.129-3.498,3.488.496,4.573,5.022Z" fill="#270002"></path><path d="M158.655,204.333c-1.818.134-3.702.243-5.585.341.532-1.975.948-3.958,1-5.412.139-3.509,3.498.522,4.585,5.071Z" fill="#270002"></path><path d="M149.256,204.829c-2.853.111-5.683.157-8.373.157c1.577-2.964,3.044-6.148,3.612-8.471c1.188-4.779,4.686,1.792,4.761,8.314Z" fill="#270002"></path><path d="M167.61,183.675c-1.818,1.743-3.512,3.571-4.482,5.058-2.311,3.486-3.248-2.505-1.529-7.733c1.882,1.136,3.891,2.045,6.011,2.675Z" fill="#270002"></path><path d="M151.049,171.173c-2.097.556-4.105,1.222-5.494,1.911-3.489,1.743-1.493-3.22,2.272-6.667.973,1.622,2.047,3.22,3.222,4.756Z" fill="#270002"></path><path d="M48.2734,158.571v1.91h.0594c-.0232,0-.0361,0-.0594.011v1.141c0,1.978.0129,3.932.0465,5.83l.1188,1.867.1781,2.646.0233.382.284,4.304.0568.912v.01c.049.483.1084.945.1781,1.418v.02c.0594.442.1317.878.2118,1.32.0361.206.0723.415.1084.624.3305,1.813.7436,3.545,1.2626,5.203.0723.243.142.473.2246.715v.011l.0129.023v.01c.0826.24.1653.483.2582.713.6145,1.678,1.3607,3.261,2.2566,4.763.945,1.614,2.0785,3.119,3.4263,4.503.0232.031.0593.055.0826.088c1.2884,1.327,2.7652,2.546,4.4642,3.654c1.6782,1.087,3.5682,2.065,5.6957,2.922.7204.284,1.464.561,2.2437.821.7333.243,1.4872.486,2.267.705.426.119.8623.23,1.3116.338.7694.199,1.5595.385,2.3754.55.5913.122,1.1928.243,1.8177.352.426.077.852.142,1.2884.209c1.9029.307,3.9349.56,6.083.736.3796.031.7694.064,1.1696.087c2.7885.21,5.8017.318,9.0265.318c6.5682,0,12.2122-.483,17.0562-1.405c1.418-.276,2.776-.583,4.064-.934c1.288-.339,2.492-.713,3.651-1.131c2.67-.943,4.996-2.073,7.051-3.37c2.657-1.668,4.844-3.632,6.615-5.85.426-.517.816-1.043,1.18-1.583c1.159-1.668,2.128-3.457,2.897-5.365.199-.442.364-.881.532-1.33.767-2.066,1.368-4.237,1.807-6.532.034-.142.07-.287.093-.439.023-.132.06-.297.083-.429.059-.297.106-.591.152-.898.307-1.79.545-3.656.723-5.567.057-.648.106-1.296.152-1.955.06-.735.096-1.482.132-2.241.011-.108.023-.227.023-.338v-.033c.093-1.779.153-3.6.176-5.456.013-.287.023-.56.023-.847.013-.757.013-1.526.013-2.293.013-.462.013-.934.013-1.404c0-.506.01-1.023,0-1.526.01-1.056.01-2.12.01-3.184c0-.736-.01-1.438-.036-2.153-.01-.449-.033-.909-.057-1.361-.025-.416-.049-.834-.082-1.249v-.013c-.013-.155-.026-.318-.036-.473-.119-1.371-.274-2.721-.486-4.061c0-.021,0-.031-.013-.055-.413-2.855-1.025-5.644-1.83-8.321-.413-1.405-.886-2.799-1.418-4.162-.01-.065-.046-.142-.069-.207-.06-.142-.106-.286-.179-.418-.779-2.029-1.675-3.974-2.667-5.851-.439-.844-.911-1.668-1.397-2.481-.932-1.58-1.949-3.085-3.023-4.534-8.505-11.495-21.11-18.7732-35.1532-18.7732-13.7746,0-26.1318,6.9942-34.6367,18.0812-1.087,1.394-2.0914,2.856-3.0364,4.369v.013c-.4957.8-.9786,1.624-1.4407,2.458v.01c-1.0509,1.911-2.0062,3.899-2.8453,5.962-.0362.098-.0826.186-.1188.284v.013c-.2246.547-.4493,1.107-.6506,1.678h-.0104c-1.2884,3.524-2.2695,7.247-2.8943,11.123-.1549.919-.284,1.854-.3899,2.786h.0103c-.0929.857-.1885,1.725-.2582,2.592-.0232.264-.0361.527-.0594.801-.0232.395-.0464.803-.0593,1.208-.0465.901-.0594,1.81-.0594,2.721c0,.922,0,1.833-.0104,2.745v.044c0,.749,0,1.482-.0129,2.218Z" fill="#fb8840"></path><path d="M140.485,144.213c-.413-2.856-1.027-5.644-1.83-8.322-.416-1.404-.889-2.801-1.418-4.162-3.64,1.779-7.348,3.305-10.173,3.852-7.074,1.387,3.806,8.399,13.421,8.632Z" fill="#270002"></path><path d="M141.183,156.761c.011-1.056.011-2.12.011-3.186c0-.736-.011-1.439-.037-2.151-.01-.449-.033-.912-.056-1.361-.026-.418-.049-.834-.083-1.252v-.01c-.013-.155-.023-.318-.036-.473-3.357,1.023-6.579,1.823-9.192,2.174-6.78.888.413,4.743,9.393,6.259Z" fill="#270002"></path><path d="M134.317,125.256c-.439-.847-.912-1.668-1.395-2.481-.934-1.58-1.949-3.085-3.026-4.534-.836.284-1.642.506-2.362.635-4.689.925.496,4.932,6.783,6.38Z" fill="#270002"></path><path d="M49.1094,143.456c9.9585.682,22.6927-7.123,15.1663-8.595-3.1655-.604-7.4412-2.448-11.4922-4.5-.0362.098-.0826.186-.1188.286v.011c-.2246.547-.4492,1.107-.6481,1.678h-.0129c-1.2884,3.524-2.2695,7.245-2.8943,11.12Z" fill="#270002"></path><path d="M48.2734,158.571c11.0223-1.384,20.3199-5.5,12.1326-6.424-3.3669-.372-7.6426-1.337-11.9906-2.512-.0232.395-.0464.8-.0593,1.208-.0465.899-.0594,1.81-.0594,2.721c0,.922,0,1.834-.0104,2.745v.044c0,.746,0,1.482-.0129,2.218Z" fill="#270002"></path><path d="M55.6289,124.388c6.1683-1.482,11.1514-5.391,6.5349-6.3-.6403-.121-1.3245-.309-2.0552-.539-1.087,1.394-2.0914,2.853-3.0364,4.368v.011c-.4957.803-.9811,1.626-1.4433,2.46Z" fill="#270002"></path><path d="M74.7473,198.268c.0362,2.657.2479,5.236.6145,7.717.5913.122,1.1929.243,1.8177.351.426.078.8521.142,1.2884.209c1.9029.308,3.9349.561,6.0831.736.3795.031.7694.065,1.1696.088c2.7885.209,5.8016.318,9.0264.318c6.569,0,12.213-.483,17.056-1.405.38-2.799.568-5.742.522-8.773-.261-18.65.635-48.27-19.1633-47.875-18.7939.385-18.6752,29.992-18.4144,48.634Z" fill="#fcaf67"></path><path d="M83.5869,206.651c-.2091.044-.4208-.083-.4725-.32-.1704-.777-.3408-1.557-.5112-2.334-.0465-.22.0826-.475.2892-.522.2066-.044.4209.085.4699.32.173.778.3434,1.557.5138,2.335.0465.219-.0826.475-.2892.521Z" fill="#fb8840"></path><path d="M80.5042,198.397c-.1807.099-.4363.05-.5293-.167-.2943-.674-.4363-1.42-.3872-2.167.0129-.227.1807-.439.3976-.423.2039.015.3976.201.3821.444-.0103.163-.0129.328-.0026.491c0,.036.0026.069.0052.105.0026.016.0026.019.0026.024c0,.013.0025.026.0051.041.0078.075.0181.15.031.225.0284.155.0646.309.1085.459.0077.034.0206.067.0309.101.0052.018.0104.036.0181.054c0,.003,0,0,0,.003.0284.075.0594.149.0904.224.0903.202.0439.478-.1524.586Z" fill="#fb8840"></path><path d="M80.0283,191.021c.0387.222-.0749.475-.2892.521-.2014.044-.4286-.08-.4699-.317-.1704-.94-.2324-1.903-.173-2.859.0155-.224.1833-.436.4002-.42.204.015.3976.201.3821.441-.0568.893-.0077,1.766.1498,2.634Z" fill="#fb8840"></path><path d="M89.4833,202.239c-.1807.098-.4364.049-.5319-.17-.2814-.638-.4751-1.322-.5577-2.027-.0129-.116-.0129-.22.0439-.323.0491-.09.1472-.178.2453-.199.1885-.041.4415.078.4699.318.0387.328.0981.653.1833.968.0413.155.0878.305.142.455.0052.015.0104.033.0129.038.0155.042.0336.085.0491.129.031.075.062.15.0955.225.0904.201.0439.478-.1523.586Z" fill="#fb8840"></path><path d="M82.8046,192.322c-.1962.054-.4337-.088-.4724-.318-.1859-1.175-.2737-2.365-.2557-3.555.0078-.556.7901-.537.7824.02-.0181,1.116.0594,2.231.2349,3.331.0362.23-.0749.465-.2892.522Z" fill="#fb8840"></path><path d="M81.6973,171.535c-.204.733-.4106,1.469-.6171,2.202-.0594.214-.2789.369-.4828.294-.1988-.072-.3331-.302-.2686-.534.2066-.733.4132-1.467.6171-2.203.062-.214.2815-.369.4854-.294.1963.072.3305.302.266.535Z" fill="#fb8840"></path><path d="M82.5068,183.657c-.0233.229-.1756.426-.4002.421-.1963-.006-.4054-.21-.3822-.442.1265-1.283.2556-2.569.3822-3.85.0232-.232.1755-.428.4002-.423.1962.005.4053.209.3821.441-.1291,1.284-.2556,2.569-.3821,3.853Z" fill="#fb8840"></path><path d="M83.6434,166.459c.0697-.096-.0077.013-.0206.033-.0207.034-.0413.065-.062.098-.0413.068-.0826.135-.1188.202-.0774.139-.1471.281-.2065.428-.0052.013-.0103.024-.0155.037c0,.002,0,0,0,.002-.0129.036-.0258.075-.0413.111-.0258.078-.0491.153-.0697.23-.0439.155-.0801.31-.1085.47-.0361.222-.2943.364-.4828.294-.2143-.08-.3072-.297-.2659-.534.1265-.734.4286-1.405.8468-1.988.0568-.08.1937-.124.2815-.122.0929.003.2065.049.2711.129.0671.083.1188.197.111.313-.0077.119-.0516.204-.1188.297Z" fill="#fb8840"></path><path d="M86.8896,198.852c-.2014.044-.426-.082-.4699-.32-.1652-.865-.2917-1.735-.3769-2.616-.0233-.222.0619-.472.2866-.521.1859-.039.4492.08.4725.32.0877.878.2117,1.751.3769,2.616.0413.222-.0774.475-.2892.521Z" fill="#fb8840"></path><path d="M85.826,190.329c-.204.044-.4261-.082-.4725-.32-.1653-.844-.2273-1.717-.1756-2.582.0155-.225.1833-.436.4002-.421.204.016.3976.202.3821.442-.0516.826-.0026,1.57.1523,2.36.0439.222-.0774.475-.2865.521Z" fill="#fb8840"></path><path d="M85.0176,175.335c-.1187.367-.2117.747-.2736,1.131c0-.002-.0104.067-.0104.078-.0077.046-.0129.09-.018.134-.0104.093-.0207.188-.0259.281-.0155.202-.0232.403-.0232.607c0,.225-.1936.436-.4002.421-.2143-.015-.3795-.201-.3795-.442-.0026-.831.1265-1.665.3795-2.447.0697-.212.2763-.375.4854-.297.1885.07.3408.307.2659.534Z" fill="#fb8840"></path><path d="M86.2932,166.309l-1.025,2.256c-.0904.204-.3666.272-.5344.15-.1885-.134-.235-.374-.1369-.591l1.025-2.257c.0904-.201.3667-.271.5345-.149.1885.136.235.377.1368.591Z" fill="#fb8840"></path><path d="M86.3143,161.873c-.3718.475-.8649.813-1.402,1.007-.0878.033-.2117.005-.2892-.047-.0852-.054-.1626-.162-.1807-.271-.0439-.245.08-.446.2866-.519.0258-.01.0491-.02.0697-.028.204-.09.3925-.209.5706-.351.1446-.122.2789-.256.3976-.408.062-.08.1885-.127.2815-.124.0955.003.2065.052.2711.132.1523.186.1368.426-.0052.609Z" fill="#fb8840"></path><path d="M93.1849,206.013c-.0749.22-.2686.365-.4829.297-.191-.062-.3434-.315-.2685-.534.3847-1.118.6248-2.285.7049-3.478.0155-.232.1807-.429.4002-.421.2014.005.395.207.3795.442-.0826,1.262-.3253,2.509-.7332,3.694Z" fill="#fb8840"></path><path d="M97.7697,205.74c-.0309.23-.2969.354-.4828.294-.2246-.072-.2995-.304-.2685-.534.1756-1.239.2917-2.489.3589-3.741.031-.553.8133-.535.7823.02-.0723,1.327-.204,2.647-.3899,3.961Z" fill="#fb8840"></path><path d="M108.562,201.033c-.261,1.191-.463,2.394-.594,3.61-.026.23-.176.426-.401.421-.193-.005-.405-.209-.382-.442.142-1.288.349-2.566.625-3.826.122-.542.87-.302.752.237Z" fill="#fb8840"></path><path d="M105.899,197.919c-.199.966-.4,1.929-.602,2.895-.046.227-.286.356-.482.294-.212-.067-.315-.305-.269-.534.202-.963.403-1.929.604-2.895.047-.224.287-.356.483-.294.212.067.315.307.266.534Z" fill="#fb8840"></path><path d="M107.082,194.999l-.055-3.576c-.01-.555.772-.534.78.021l.054,3.576c.011.555-.772.534-.779-.021Z" fill="#fb8840"></path><path d="M103.99,194.129c-.013.225-.184.437-.398.421-.206-.015-.395-.199-.385-.441.042-.734.08-1.467.122-2.2.013-.225.183-.439.4-.421.204.013.392.199.382.441-.041.734-.08,1.467-.121,2.2Z" fill="#fb8840"></path><path d="M108.82,188.408c-.026.232-.173.429-.4.423-.194-.005-.408-.209-.38-.441.111-.986.024-1.968-.263-2.91-.067-.219.096-.467.289-.519.22-.059.403.096.47.318.305,1.001.403,2.081.284,3.129Z" fill="#fb8840"></path><path d="M105.696,185.981c-.22-.016-.38-.199-.382-.442l-.029-1.786c-.002-.228.196-.437.4-.424.22.018.377.202.383.442l.028,1.789c.002.227-.196.436-.4.421Z" fill="#fb8840"></path><path d="M99.9049,198.191c-.0207.222-.1782.436-.4002.421-.1963-.016-.4028-.202-.3822-.442.0878-.916.173-1.833.2582-2.75.0207-.224.1782-.438.4002-.42.1962.013.4031.201.3821.441-.088.917-.1729,1.833-.2581,2.75Z" fill="#fb8840"></path><path d="M90.5537,197.405c-.2169-.015-.377-.199-.3821-.441l-.0388-2.613c-.0025-.225.1963-.436.4002-.421.2169.015.377.199.3822.442l.0387,2.612c.0026.228-.1962.437-.4002.421Z" fill="#fb8840"></path><path d="M95.0355,197.324c-.2195-.016-.3796-.199-.3821-.442l-.0362-2.337c-.0026-.227.1962-.439.4002-.423.2195.015.377.201.3821.441l.0362,2.34c.0026.224-.1962.436-.4002.421Z" fill="#fb8840"></path><path d="M91.0885,188.452c.0181.232-.2065.426-.4002.423-.2298-.007-.364-.209-.3821-.444-.0749-.963-.0697-1.931.0181-2.894.0206-.233.1755-.429.4002-.421.1962.005.4002.209.3795.441-.0852.964-.093,1.932-.0155,2.895Z" fill="#fb8840"></path><path d="M99.5536,189.67c-.0077.235-.1859.428-.4002.421-.2091-.006-.3899-.207-.3795-.442.0361-1.007.0723-2.016.111-3.026.0077-.232.1859-.426.4002-.421.2065.005.3899.207.3795.442-.0361,1.009-.0723,2.016-.111,3.026Z" fill="#fb8840"></path><path d="M96.487,185.325c-.0077.232-.1859.426-.3976.421-.2091-.005-.3899-.207-.3821-.442.0361-.963.0723-1.926.1084-2.889.0078-.232.1859-.426.4002-.421.2066.005.3899.207.3796.442-.0362.963-.0723,1.926-.1085,2.889Z" fill="#fb8840"></path><path d="M87.855,181.082c.0206.233-.204.426-.3976.421-.2324-.005-.3641-.206-.3822-.441-.08-.963-.0594-1.932.0594-2.892.0284-.23.173-.426.4002-.421.1937.005.4105.209.3821.442-.1187.96-.1394,1.928-.0619,2.891Z" fill="#fb8840"></path><path d="M89.459,174.034c-.0155.228-.1833.439-.4002.421-.204-.013-.3976-.199-.3821-.441.0361-.597.0722-1.193.1084-1.79.0129-.224.1833-.436.4002-.42.204.015.395.201.3821.441-.0361.596-.0723,1.193-.1084,1.789Z" fill="#fb8840"></path><path d="M93.4933,177.37c-.0078.049-.0155.098-.0233.145-.0025.02-.0051.041-.0077.062-.0103.093-.0207.183-.031.276-.0155.176-.0258.351-.031.529-.0103.362,0,.723.0336,1.085.0206.224-.2066.434-.4002.421-.2324-.018-.3589-.199-.3796-.442-.0723-.774-.0361-1.546.0878-2.313.0362-.225.2969-.364.4828-.297.2195.082.3047.297.2686.534Z" fill="#fb8840"></path><path d="M109.038,180.822c-.186.051-.446-.083-.47-.318l-.33-3.168c-.023-.232.065-.462.289-.521.186-.049.447.087.47.32.111,1.056.22,2.112.331,3.168.023.232-.065.459-.29.519Z" fill="#fb8840"></path><path d="M101.283,182.348c-.217-.016-.377-.199-.382-.442l-.042-2.749c-.002-.228.197-.437.401-.421.216.015.377.198.382.441l.041,2.75c.003.227-.194.436-.4.421Z" fill="#fb8840"></path><path d="M105.628,177.471c-.07.075-.184.129-.284.124-.23-.018-.359-.202-.38-.442-.057-.64-.114-1.283-.17-1.923-.008-.098.056-.233.118-.297.07-.075.184-.132.282-.124.232.018.361.201.382.441.054.641.114,1.281.168,1.921.01.101-.054.233-.116.3Z" fill="#fb8840"></path><path d="M97.4508,175.815c-.2169-.015-.377-.199-.3821-.441l-.0413-2.75c-.0026-.227.1962-.437.4002-.421.2169.015.3769.199.3821.441l.0413,2.75c.0026.227-.1962.437-.4002.421Z" fill="#fb8840"></path><path d="M101.939,172.704c-.194.041-.436-.08-.472-.32-.124-.87-.251-1.74-.375-2.613-.033-.222.07-.473.287-.519.196-.044.439.08.472.317l.375,2.613c.033.222-.07.473-.287.522Z" fill="#fb8840"></path><path d="M106.872,172.327c-.193.106-.421.039-.532-.167-.253-.478-.454-.989-.606-1.516-.065-.217.09-.48.286-.522.22-.046.406.088.473.318.031.108.064.214.1.318.122.338.264.668.432.983.103.194.033.483-.153.586Z" fill="#fb8840"></path><path d="M93.9741,167.045c-.16,1.012-.3201,2.021-.4802,3.031-.0361.23-.2969.356-.4828.297-.2221-.072-.3047-.305-.2685-.535.16-1.012.3201-2.021.4802-3.031.0387-.23.2969-.354.4854-.294.2195.07.3021.304.2659.532Z" fill="#fb8840"></path><path d="M91.7852,163.358c0-.003.0025-.006.0051-.008.0284-.041.0103-.008-.0051.008Z" fill="#fb8840"></path><path d="M92.0537,163.002c-.0542.067-.1059.134-.1601.204-.0232.031-.0465.064-.0723.098-.0103.013-.031.051-.0439.062.0026-.003.0026-.005.0052-.008-.0981.139-.1911.284-.2789.429-.1833.299-.346.609-.4905.932-.0904.201-.3667.271-.5345.149-.1885-.136-.2324-.374-.1368-.591.3098-.687.7048-1.322,1.1644-1.892.1369-.171.4209-.16.5525.005.1498.186.1421.428-.0051.612Z" fill="#fb8840"></path><path d="M98.0974,165.346c-.1962.041-.4337-.08-.4699-.32-.1239-.78-.2453-1.56-.3666-2.34-.0362-.222.0697-.472.2866-.519.1962-.043.4337.08.4725.318.1213.78.2452,1.559.3666,2.339.0361.222-.0723.475-.2892.522Z" fill="#fb8840"></path><path d="M103.566,165.764c-.188.103-.426.044-.529-.168-.32-.648-.643-1.299-.963-1.947-.098-.196-.039-.483.152-.586.189-.103.426-.044.532.168.32.651.641,1.299.961,1.947.098.196.038.483-.153.586Z" fill="#fb8840"></path><path d="M91.5733,159.144c-.0698.021-.1369.046-.204.072-.0336.013-.0671.026-.1007.039-.0181.005-.0336.013-.0517.021-.0387.018-.0309.013.0233-.011-.0207-.002-.0749.034-.0981.047-.0233.01-.0491.02-.0723.033-.0646.034-.1291.065-.1937.101-.2478.137-.4828.294-.7048.475-.0749.059-.2118.065-.297.036-.0929-.028-.191-.108-.2349-.206s-.0672-.22-.0336-.326c.0362-.118.0981-.188.1859-.26.4828-.388,1.0276-.674,1.5982-.86.1963-.065.4312.098.47.317.0438.241-.0775.452-.2866.522Z" fill="#fb8840"></path><path d="M100.03,161.166c-.0778.075-.1785.131-.2844.124-.1084-.011-.1859-.057-.2685-.132-.5525-.488-1.1025-.976-1.655-1.464-.0749-.065-.1136-.212-.111-.312.0025-.104.0464-.228.1161-.297.0775-.078.1782-.132.2841-.124.1058.007.1859.054.2685.129.5525.488,1.1025.976,1.6552,1.464.075.067.113.214.111.312-.003.106-.047.23-.116.3Z" fill="#fb8840"></path><path d="M94.5882,160.288c-.1059.509-.2143,1.017-.3202,1.526-.0491.219-.2918.366-.4854.297-.2091-.08-.3176-.3-.2659-.537.1058-.506.2143-1.018.3227-1.526.0465-.22.2892-.367.4828-.295.2092.075.3176.297.266.535Z" fill="#fb8840"></path><path d="M97.8482,170.375c-.0491.093-.1472.179-.2427.199-.1859.041-.4493-.077-.4725-.317-.062-.641-.1265-1.281-.1885-1.921-.0129-.117-.0129-.215.0439-.321.049-.092.1472-.178.2453-.198.1859-.042.4466.077.4699.317.0645.641.1265,1.281.1885,1.919.0129.118.0129.217-.0439.322Z" fill="#fb8840"></path><path d="M107.052,167.488c-.026.101-.098.212-.186.259-.175.098-.441.051-.532-.168-.204-.506-.413-1.01-.617-1.516-.044-.106-.064-.212-.036-.328.028-.1.101-.211.188-.258.176-.098.439-.052.53.168.206.506.413,1.009.619,1.516.044.105.065.214.034.327Z" fill="#fb8840"></path><path d="M150.705,17.6664c-1.492,8.2829,4.01,16.2068,12.285,17.6992c8.278,1.4924,21.58,3.341,23.07-4.9418c1.492-8.2855-12.582-28.79127-20.857-30.283637C156.925,-1.3522,152.195,9.38093,150.705,17.6664Z" fill="#fb8840"></path><path d="M151.992,22.9c-.847,4.7043,2.233,9.1969,6.881,10.036c4.647.8366,12.117,1.8719,12.963-2.8324.847-4.7069-7.035-16.3333-11.683-17.1725-4.647-.8365-7.314,5.262-8.161,9.9689Z" fill="#fcaf67"></path><g id="eQpzG2ObMUW114_tr" transform="translate(34.459946,33.648613) rotate(0)"><g transform="translate(-34.459943,-33.648611)"><path d="M38.769,17.6664c1.4924,8.2829-4.0098,16.2068-12.2875,17.6992-8.2751,1.4924-21.57725,3.341-23.06703-4.9418C1.92211,22.1383,15.9963,1.63253,24.2714,0.140163C32.5491,-1.3522,37.2792,9.38093,38.769,17.6664Z" fill="#fb8840"></path><path d="M37.4821,22.9c.8469,4.7043-2.236,9.1969-6.8835,10.036-4.6449.8366-12.1144,1.8719-12.9613-2.8324-.8469-4.7069,7.0332-16.3333,11.6807-17.1725c4.6475-.8365,7.3172,5.262,8.1641,9.9689Z" fill="#fcaf67"></path></g></g><path d="M18.9727,66.4136c0,1.8925.1549,3.7619.4492,5.6183.1782,1.1593.4131,2.2927.71,3.4288.9321,3.6741,2.4322,7.2708,4.4281,10.7099c3.0002,5.2129,7.1236,10.098,12.1687,14.4354c13.7023,11.8,34.1152,19.688,56.9137,19.688c22.7986,0,43.2116-7.888,56.9136-19.688c5.208-4.4794,9.44-9.54,12.474-14.9544c1.784-3.1706,3.144-6.4781,4.04-9.8501.403-1.513.708-3.0363.909-4.5752.227-1.5956.331-3.2042.331-4.8127c0-3.8884-.14-7.4825-.424-10.8029-.049-.5448-.095-1.0663-.155-1.5853-.4-4.0536-1.017-7.6838-1.843-10.9371-5.799-23.1962-21.64-27.4409-42.383-27.8669-4.665-.0929-9.581,0-14.696.1214-2.409.0568-4.867.1162-7.372.1626-2.5636.0491-5.161.0826-7.7946.0826-3.9581,0-7.831-.0593-11.6135-.1161h-.0104c-1.513-.0362-3.0131-.0594-4.5003-.0723-5.0813-.0827-9.9818-.1059-14.6241.0826-20.0101.7926-35.321,5.4969-41.2517,27.1336-.9786,3.5838-1.7015,7.6374-2.1482,12.2255-.0361.3537-.0723.71-.0955,1.0741v.0129c-.284,3.2403-.426,6.726-.426,10.4853Z" fill="#fb8840"></path><path d="M36.7344,100.607c13.7023,11.799,34.1152,19.687,56.9137,19.687c22.7989,0,43.2119-7.888,56.9139-19.687-12.711-17.6969-33.465-29.2149-56.9139-29.2149-23.4363,0-44.1925,11.518-56.9137,29.2149Z" fill="#f7e8c7"></path><path d="M95.1618,80.9785l12.5712-7.8981c2.425-2.928.344-7.3612-3.459-7.3612h-21.2524c-3.8007,0-5.8817,4.4332-3.4573,7.3612l12.5715,7.8981c.9786.3512,2.0475.3512,3.026,0Z" fill="#270002"></path><path d="M115.824,53.5685c0,5.6518,3.212,10.2348,7.175,10.2348c3.961,0,7.173-4.583,7.173-10.2348c0-5.6545-3.212-10.2374-7.173-10.2374-3.963,0-7.175,4.5829-7.175,10.2374Z" fill="#fff"></path><path d="M118.727,55.933c0,3.5063,1.913,6.349,4.273,6.349c2.357,0,4.27-2.8427,4.27-6.349s-1.913-6.349-4.27-6.349c-2.36,0-4.273,2.8427-4.273,6.349Z" fill="#270002"></path><path d="M56.7617,53.5685c0,5.6518,3.212,10.2348,7.1727,10.2348c3.9632,0,7.1752-4.583,7.1752-10.2348c0-5.6545-3.212-10.2374-7.1752-10.2374-3.9607,0-7.1727,4.5829-7.1727,10.2374Z" fill="#fff"></path><path d="M59.6641,55.933c0,3.5063,1.9132,6.349,4.2731,6.349s4.2731-2.8427,4.2731-6.349-1.9132-6.349-4.2731-6.349-4.2731,2.8427-4.2731,6.349Z" fill="#270002"></path><path d="M131.484,84.2188c0,4.5778,3.711,8.2907,8.286,8.2907s8.283-3.7129,8.283-8.2907-3.708-8.2906-8.283-8.2906-8.286,3.7129-8.286,8.2906Z" fill="#f9ceb9"></path><path d="M101.831,81.1615c-.317-.3176-.829-.3176-1.144,0-.317.315-.317.8288,0,1.1438.315.315.827.315,1.144,0c.315-.315.315-.8288,0-1.1438Z" fill="#270002"></path><path d="M98.8175,84.1801c-.3149-.3176-.8288-.3176-1.1438,0-.3149.315-.3149.8262,0,1.1438.315.315.8289.315,1.1438,0c.315-.3176.315-.8288,0-1.1438Z" fill="#270002"></path><path d="M104.284,83.6122c-.317-.315-.828-.315-1.143,0-.318.3176-.318.8288,0,1.1438.315.3176.826.3176,1.143,0c.315-.315.315-.8262,0-1.1438Z" fill="#270002"></path><path d="M86.0148,81.2572c-.3176-.3176-.8288-.3176-1.1438,0-.3176.315-.3176.8262,0,1.1438.315.315.8262.315,1.1438,0c.315-.3176.315-.8288,0-1.1438Z" fill="#270002"></path><path d="M85.4933,86.1313c-.3175-.3176-.8288-.3176-1.1438,0-.315.3149-.315.8262,0,1.1438.315.3149.8263.3149,1.1438,0c.315-.3176.315-.8289,0-1.1438Z" fill="#270002"></path><path d="M89.9894,84.1801c-.3176-.3176-.8288-.3176-1.1438,0-.315.315-.315.8262,0,1.1438.315.315.8262.315,1.1438,0c.315-.3176.315-.8288,0-1.1438Z" fill="#270002"></path><path d="M38.168,84.2188c0,4.5778,3.7076,8.2907,8.2828,8.2907s8.2855-3.7129,8.2855-8.2907-3.7103-8.2906-8.2855-8.2906-8.2828,3.7129-8.2828,8.2906Z" fill="#f9ceb9"></path><path d="M81.4748,18.3325C81.134,30.7826,95.3321,46.4834,95.6755,36.6591c.1885-5.5693,3.0931-14.3788,5.7625-21.1513-2.5635.0465-5.1609.0826-7.7945.0826-3.9581,0-7.8336-.0593-11.6136-.1187h-.0103c-.3202.8753-.519,1.8202-.5448,2.8608Z" fill="#270002"></path><path d="M62.8984,15.4821c.6972,9.7081,11.0921,20.844,11.3399,13.3254.1291-3.5476,1.606-8.7037,3.2843-13.408-5.0813-.0826-9.9818-.1059-14.6242.0826Z" fill="#270002"></path><path d="M108.812,15.3428c.605,9.7416,11.093,21.0196,11.353,13.4648.132-3.5837,1.642-8.8328,3.344-13.5862-4.666-.0929-9.582,0-14.697.1214Z" fill="#270002"></path><path d="M152.98,67.4101c3.945.142,9.85,1.9132,15.001,3.8186.225-1.5956.331-3.2041.331-4.8127c0-3.8884-.142-7.4825-.426-10.8054-10.276-.0594-22.987,11.5154-14.906,11.7995Z" fill="#270002"></path><path d="M167.735,54.0255c-3.45-1.1593-7.028-2.1172-9.579-2.1972-5.376-.1911.79-6.646,7.735-8.7399l1.844,10.9371Z" fill="#270002"></path><path d="M158.152,84.8487c1.384.0465,3.072.3538,4.88.803c1.784-3.168,3.142-6.4781,4.04-9.8475-7.397,1.655-14.59,8.8432-8.92,9.0445Z" fill="#270002"></path><path d="M18.9727,66.4161c0,1.89.1549,3.7593.4492,5.6157c5.5538-2.1637,12.618-4.4693,17.1183-4.6217c8.1486-.284-4.867-12.0731-15.1922-11.7995-.6971.0233-1.3477.1291-1.9493.3073v.0103c-.284,3.2404-.426,6.7286-.426,10.4879Z" fill="#270002"></path><path d="M19.5,54.8412c4.0872-1.513,8.7528-2.9072,11.8718-3.0157c5.8816-.1988-2.0682-7.9214-9.7236-9.2098-.9786,3.5838-1.7015,7.6374-2.1482,12.2255Z" fill="#270002"></path><path d="M20.1367,75.4604c.9321,3.6767,2.4322,7.2708,4.428,10.7099c2.5174-.7306,4.9393-1.2522,6.806-1.3245c6.2716-.2117-3.1783-8.9722-11.234-9.3854Z" fill="#270002"></path><path d="M100.228,96.4338c.672,0,1.387-.1317,2.141-.3977c4.975-1.7505,4.554-6.3386,4.549-6.3851-.033-.3227-.304-.568-.648-.5241-.325.0335-.56.3227-.526.648.015.1472.312,3.7129-3.765,5.1458-1.534.5397-2.7755.4235-3.7928-.3563-4.0304-3.0802-3.2171-15.0475-3.2068-15.1689.0232-.3253-.222-.6067-.5474-.6326-.3201-.0206-.6093.2221-.63.5474-.0387.519-.8675,12.7264,3.6664,16.194.8107.6196,1.7351.9295,2.7596.9295Z" fill="#270002"></path><path d="M88.2435,96.4338c1.0251,0,1.9494-.3099,2.7601-.9295c4.5339-3.4676,3.7051-15.675,3.669-16.194-.0258-.3253-.3124-.568-.6326-.5474-.3253.0259-.5706.3073-.5474.6326.0104.1214.8237,12.0887-3.2067,15.1689-1.0173.7798-2.2567.896-3.7929.3563-4.0743-1.4329-3.7774-4.9986-3.7645-5.1484.031-.3227-.204-.6119-.5267-.6454-.3305-.0362-.6145.2014-.6481.5241-.0051.0465-.426,4.6346,4.5494,6.3851.7539.266,1.4691.3977,2.1404.3977Z" fill="#270002"></path><path d="M114.668,118.775c-.029.003-.047.023-.047.052v.175c0,.026.026.049.052.047.026-.003.046-.023.046-.052v-.175c0-.026-.026-.049-.051-.047Z" fill="#fcaf67"></path><path d="M114.267,119.051c0-.002,0-.002,0-.002c0-.003,0,0,0-.003s.003-.008.003-.01c.002-.018.005-.034.007-.052.006-.026-.01-.054-.038-.059-.023-.003-.054.013-.057.038-.013.07-.018.142-.01.215.002.025.023.049.051.046.026,0,.049-.023.047-.049-.003-.034-.005-.067-.003-.101c0-.007,0-.015,0-.023Z" fill="#fcaf67"></path><path d="M113.374,118.961c.003-.026-.026-.049-.051-.049-.029.005-.044.026-.047.052-.005.085-.002.17.005.253.005.026.024.049.052.046.026,0,.052-.023.049-.051-.01-.083-.013-.168-.008-.251Z" fill="#fcaf67"></path><path d="M113.814,118.91c0-.026-.029-.049-.052-.047-.031.003-.047.024-.047.052-.007.075-.005.152.006.227.002.026.02.049.049.047.025-.003.051-.023.049-.052-.011-.075-.011-.15-.005-.227Z" fill="#fcaf67"></path><path d="M113.305,118.191c-.002-.025-.025-.046-.051-.046s-.049.026-.047.052c.008.113.016.227.026.34.003.026.023.05.052.047.026,0,.049-.026.046-.052-.008-.113-.018-.227-.026-.341Z" fill="#fcaf67"></path><path d="M114.933,118.207c-.028.005-.046.026-.046.052v.214c0,.026.026.049.051.049.026-.003.047-.026.047-.052v-.214c0-.026-.026-.049-.052-.049Z" fill="#fcaf67"></path><path d="M115.289,117.779c.002.013,0,0,0-.003c0-.002-.003-.008-.003-.013s0-.015-.003-.02c0-.016,0-.031-.002-.047c0-.013,0-.028,0-.044c0-.005,0-.013.002-.02c0-.006,0-.011,0-.013c0-.003,0-.003,0-.003s0,0,0-.002c0-.013,0-.024-.005-.037-.007-.01-.02-.018-.033-.02-.013-.003-.023-.003-.036.005-.011.008-.021.018-.021.031-.008.072-.005.144.008.214c0,.013.013.026.023.029.01.007.026.01.039.005.01-.005.023-.013.028-.024.005-.012.005-.025.003-.038Z" fill="#fcaf67"></path><path d="M113.235,117.149c-.003-.026-.023-.049-.052-.047-.025.003-.049.023-.046.052.005.077.013.157.018.237.003.026.023.049.052.049.025-.002.049-.025.046-.051-.005-.08-.013-.16-.018-.24Z" fill="#fcaf67"></path><path d="M115.398,118.393c-.023-.01-.057-.005-.067.018-.044.101-.075.204-.096.313-.005.026.011.054.039.059.023.005.052-.01.057-.039.01-.049.021-.1.036-.149.016-.049.031-.088.052-.137.01-.023.005-.054-.021-.065Z" fill="#fcaf67"></path><path d="M112.751,118.935c0-.015-.003-.026-.013-.033-.011-.011-.024-.016-.039-.016-.023.003-.049.026-.046.052.01.064.018.126.028.191.003.013.005.023.015.033.011.008.024.016.037.013.025-.002.051-.023.046-.051-.008-.062-.018-.127-.028-.189Z" fill="#fcaf67"></path><path d="M112.63,118.104c-.023-.109-.049-.217-.072-.326-.005-.026-.039-.041-.062-.033-.029.007-.039.036-.034.062.026.108.049.217.075.328.005.025.036.038.062.031.026-.008.036-.034.031-.062Z" fill="#fcaf67"></path><path d="M113.27,120.384c0-.013,0-.028,0-.041c0-.008,0-.013.003-.021c0-.003,0-.008,0-.01c0-.003,0-.018,0-.006c0-.012,0-.023-.008-.036-.005-.01-.018-.018-.028-.023-.016,0-.029,0-.039.008s-.021.018-.021.031c-.007.064-.007.126.003.191.003.013.005.023.015.031.011.01.024.015.037.015.023-.002.051-.025.046-.051-.002-.029-.005-.057-.008-.088Z" fill="#fcaf67"></path><path d="M113.577,120.056c0-.026-.026-.049-.052-.047-.028,0-.046.024-.046.05-.005.113-.003.227.013.34.005.026.023.047.052.047.025,0,.049-.023.046-.052-.013-.111-.018-.224-.013-.338Z" fill="#fcaf67"></path><path d="M113.908,120.345c0-.003-.002-.005-.002-.01c0,0,0,0,0-.003-.003-.005-.003-.013-.003-.021-.002-.013-.002-.025-.002-.041-.003-.013-.003-.028,0-.041c0-.008,0-.013,0-.021c0-.002,0-.015,0-.008c0,.008,0-.005,0-.007.002-.013.002-.024-.005-.037-.008-.01-.021-.018-.031-.02-.013-.003-.026-.003-.037.005-.01.008-.02.018-.023.031-.008.067-.005.134.008.201.002.013.015.024.026.031.01.006.023.008.036.003s.023-.013.028-.023c.008-.013.008-.026.005-.039Z" fill="#fcaf67"></path><path d="M113.235,119.553c.003-.026-.028-.05-.051-.047-.029.003-.047.023-.047.049-.008.09-.005.178.008.266.002.026.023.049.052.047.023-.003.049-.024.046-.052-.013-.088-.015-.176-.008-.263Z" fill="#fcaf67"></path><path d="M113.655,119.556c0-.008,0-.016.002-.024c0-.013.003-.028.008-.041.005-.026-.013-.054-.039-.059-.026-.006-.051.01-.059.036-.013.062-.016.126-.008.191c0,.013.003.023.013.033.01.008.023.013.036.013.026-.002.052-.025.049-.051-.005-.029-.005-.057-.005-.086c0-.005.003-.007.003-.01c0-.002,0-.002,0-.002Z" fill="#fcaf67"></path><path d="M114.381,120.147c-.028.002-.046.023-.049.051-.003.083-.01.168-.015.251-.003.026.028.049.051.049.029-.003.047-.026.049-.052.003-.085.011-.168.013-.253.003-.023-.026-.049-.049-.046Z" fill="#fcaf67"></path><path d="M114.06,119.695c-.026-.005-.052.01-.06.036-.013.054-.015.111-.007.165c0,.013.005.023.015.034.008.008.023.013.036.013.024-.003.049-.024.047-.052-.005-.026-.005-.054-.003-.083.003-.02.005-.036.01-.056.006-.024-.012-.055-.038-.057Z" fill="#fcaf67"></path><path d="M114.705,120.084c-.028,0-.049.023-.049.052v.224c0,.026.026.05.052.05.028-.003.046-.026.046-.052v-.227c0-.026-.023-.049-.049-.047Z" fill="#fcaf67"></path><path d="M114.497,119.627c0-.01-.011-.026-.016-.034-.01-.007-.023-.015-.036-.012-.013,0-.026.005-.033.015-.011.01-.013.021-.016.036-.003.062-.003.127.005.189.003.013.008.026.018.033.008.011.024.016.034.013.026,0,.052-.023.049-.051-.01-.062-.013-.124-.005-.189Z" fill="#fcaf67"></path><path d="M114.844,119.477c0-.013-.008-.026-.016-.033-.008-.011-.023-.016-.036-.016s-.026.005-.034.016c-.01.01-.012.023-.012.036-.006.067-.006.134.005.201c0,.016.005.026.015.036.008.008.023.013.036.011.024,0,.049-.024.047-.049-.008-.067-.01-.135-.005-.202Z" fill="#fcaf67"></path><path d="M115.004,120.234c-.026.003-.047.023-.047.052v.263c0,.026.026.049.052.047.025,0,.046-.024.046-.05v-.265c0-.024-.026-.05-.051-.047Z" fill="#fcaf67"></path><path d="M115.145,119.519c-.028-.005-.049.01-.059.036-.023.07-.031.142-.026.215.003.025.023.049.052.046.026,0,.049-.023.046-.049c0-.018,0-.034,0-.049c0-.01,0-.018,0-.029c0-.005,0-.01.003-.015.002-.031.01-.065.023-.096.008-.025-.015-.056-.039-.059Z" fill="#fcaf67"></path><path d="M112.86,119.754c-.002-.029-.023-.049-.051-.049-.026.002-.052.025-.047.051.018.153.037.302.055.455.002.025.023.049.051.046.023,0,.049-.023.047-.052-.018-.149-.036-.302-.055-.451Z" fill="#fcaf67"></path><path d="M47.7509,162.859c.0361.377.0697.779.1058,1.182.0362.261.0594.532.0956.793.1884,1.606.4002,3.238.6609,4.882.0465.235.0697.473.1059.71.0361.166.0594.341.0955.519.1756,1.064.3537,2.128.5655,3.194.049.258.1058.529.1652.79.2969,1.526.6274,3.039.9811,4.552.0465.214.1059.437.1524.651.2969,1.193.6042,2.375.9346,3.522.0698.26.1421.521.2247.782.7203,2.541,1.5104,4.999,2.3857,7.281.0826.225.1652.449.2479.664.1549.423.3201.849.4725,1.252.1058.261.2143.521.3304.769.7101,1.679,1.4408,3.251,2.2205,4.717.0955.179.1885.354.2969.532c1.087,1.986,2.2308,3.736,3.4366,5.203.1059.119.2014.235.3072.354c1.1568,1.324,2.3625,2.375,3.5915,3.085.0697.047.1524.096.2247.132.0103,0,.0103,0,.0103,0c.3666.211.7333.377,1.1102.508.0956.044.2014.083.3073.117h.0129c.9217.307,1.8667.402,2.822.307.0362,0,.0594-.01.0956-.01.0361-.013.0594-.013.1187-.026.3305-.034.6481-.106.945-.202.0698-.01.142-.023.2118-.046h.0129c1.3581-.367,2.4554-1.028,3.341-1.916.0361-.034.0723-.07.1084-.106.3409-.354.6481-.767.9089-1.206.0465-.059.0929-.118.1291-.188c0-.013,0-.013.0129-.023.4596-.757.8391-1.632,1.1102-2.59.0826-.235.142-.472.2014-.72l.0103-.013c.2479-.994.4132-2.058.5087-3.215.0232-.155.0361-.307.0465-.475.0129-.093.0129-.188.0232-.284.1188-1.701.1084-3.522,0-5.45c0-.189-.0103-.377-.0232-.566-.1059-1.714.0232-3.842.3201-6.243.0233-.248.0594-.496.093-.744.3898-3.085,1.0044-6.586,1.6679-10.157.0465-.258.093-.509.1394-.767.2014-1.053.6972-14.402-.1394-15.453-.6971-.875-32.1555-.686-31.7062,3.902Z" fill="#fb8840"></path><path d="M79.2725,206.517c.2221,1.782-1.3297,3.563-3.8445,4.772-.2014.095-.4157.196-.6326.281-.2014.085-.4183.173-.6351.248-.7514.271-1.5673.493-2.4426.651-.1833.046-.3821.082-.5809.108-.173.034-.3511.057-.5267.078l-.0697.01c-.7978.098-1.5776.137-2.316.134-.2531-.015-.4803-.023-.7204-.041s-.4802-.034-.7203-.065c-3.3437-.366-5.8249-1.817-6.0779-3.847-.3357-2.675.364-3.609,2.3031-4.637c1.0611-.563,4.7275.62,6.8757-.243c6.5788-2.638,9.0135-.428,9.3879,2.551Z" fill="#f7e8c7"></path><path d="M68.2227,212.799c-.253-.015-.4802-.023-.7203-.041s-.4803-.033-.7204-.064c-.5603-.956-.9476-1.846-1.2135-2.647-.7952-2.368-.5629-3.932-.5525-4.03.0568-.318.3614-.535.6764-.491.3279.054.5448.362.4906.679-.0077.023-.2272,1.611.692,4c.3124.782.741,1.657,1.3477,2.594Z" fill="#270002"></path><path d="M71.7163,212.469c-.1833.046-.3821.082-.581.108-.1729.034-.3511.057-.5267.078l-.0697.01c-.3305-.924-.568-1.789-.7617-2.574-.6454-2.672-.6222-4.402-.6248-4.511-.0051-.32.2737-.581.5939-.573.3227.005.5835.271.5886.594-.0103.023-.0129,1.704.6197,4.294.1807.787.4338,1.649.7617,2.574Z" fill="#270002"></path><path d="M75.6047,208.025c.0413.912.0025,2.014-.1756,3.264-.2014.095-.4157.196-.6326.281-.2014.085-.4183.173-.6351.248.2014-1.159.2633-2.189.2685-3.085-.0052-2.226-.4389-3.519-.4415-3.543-.1111-.307.049-.65.3563-.759.3098-.098.6506.062.7462.359.0361.09.4311,1.245.5138,3.235Z" fill="#270002"></path><path d="M51.8398,184.436c2.8712.106,5.9643.011,7.9137-.557c4.1363-1.18-.1291,6.48-5.2801,8.499l-2.6336-7.942Z" fill="#270002"></path><path d="M55.2773,194.403c.7101,1.678,1.4408,3.25,2.2205,4.717.0955.178.1885.354.2969.532c3.1526-2.329,5.1149-6.527,2.3393-5.724-1.229.343-3.0261.475-4.8567.475Z" fill="#270002"></path><path d="M47.9531,164.834c1.6163.281,3.1991.449,4.3351.33c2.8815-.296.0103,3.879-3.5682,5.262l-.7669-5.592Z" fill="#270002"></path><path d="M49.5469,174.93c1.4768.189,2.8711.248,3.9219.106c2.7524-.354.4725,3.217-2.7885,5.097l-1.1334-5.203Z" fill="#270002"></path><path d="M72.4628,197.677c1.3116.131,3.1061.71,4.867,1.42.0232-.155.0361-.307.0464-.475.0129-.093.0129-.189.0233-.284.1187-1.702.1084-3.522,0-5.451-3.9091.912-7.8904,4.519-4.9367,4.79Z" fill="#270002"></path><path d="M79.5549,175.175c-7.6374-.452-15.0399,4.149-9.3312,6.465c2.0991.863,4.7637,2.531,7.516,4.47.4209-3.318,1.1051-7.093,1.8152-10.935Z" fill="#270002"></path><path d="M109.001,174.41c.047.258.093.509.142.767.661,3.571,1.276,7.072,1.676,10.157.036.248.072.496.096.744l.165,6.822.142,5.615c0,.036,0,.06.013.083.01.178.023.333.046.498.093,1.157.261,2.221.509,3.215v.013c.059.248.129.485.201.72.282.958.659,1.833,1.121,2.59c0,.01,0,.01.013.023.033.07.082.129.129.188.261.439.555.852.898,1.206l.106.106c.886.888,1.996,1.549,3.354,1.916h.013c.059.023.129.036.201.046.295.096.612.168.956.202.046.013.072.013.119.026.036,0,.059.01.093.01.945.095,1.892,0,2.811-.307h.013c.106-.034.212-.073.318-.117.366-.131.733-.297,1.1-.508c0,0,0,0,.013,0c.082-.049.152-.085.235-.132c1.241-.71,2.432-1.761,3.591-3.085.106-.119.201-.235.307-.354c1.193-1.467,2.35-3.217,3.437-5.203.095-.178.188-.353.284-.532.792-1.466,1.523-3.038,2.22-4.717.119-.248.225-.508.331-.769.165-.403.33-.829.485-1.252.083-.215.165-.439.235-.664.886-2.282,1.678-4.74,2.399-7.281.082-.261.155-.522.224-.782.321-1.147.638-2.329.922-3.522.06-.214.119-.437.165-.651.354-1.513.685-3.026.982-4.552.059-.261.105-.532.152-.79.214-1.066.403-2.13.578-3.194.026-.178.06-.353.096-.519.023-.237.059-.475.106-.71.247-1.644.472-3.276.65-4.882.034-.261.07-.532.093-.793.049-.403.083-.805.119-1.182.449-4.588-31.019-4.777-31.717-3.902-.839,1.051-.33,14.4-.142,15.453Z" fill="#fb8840"></path><path d="M109.334,206.517c-.222,1.782,1.329,3.563,3.844,4.772.201.095.416.196.633.281.201.085.418.173.635.248.751.271,1.57.493,2.442.651.184.046.382.082.581.108.176.034.349.057.527.078l.07.01c.795.098,1.577.137,2.316.134.253-.015.48-.023.72-.041s.48-.034.72-.065c3.344-.366,5.825-1.817,6.078-3.847.336-2.675-.364-3.609-2.303-4.637-1.061-.563-4.727.62-6.878-.243-6.576-2.638-9.011-.428-9.385,2.551Z" fill="#f7e8c7"></path><path d="M120.383,212.799c.253-.015.48-.023.72-.041s.48-.033.721-.064c.562-.956.947-1.846,1.213-2.647.795-2.368.563-3.932.553-4.03-.057-.318-.362-.535-.677-.491-.328.054-.545.362-.49.679.007.023.227,1.611-.692,4-.313.782-.741,1.657-1.348,2.594Z" fill="#270002"></path><path d="M116.887,212.469c.183.046.382.082.581.108.175.034.348.057.526.078l.07.01c.331-.924.568-1.789.762-2.574.645-2.672.622-4.402.625-4.511.005-.32-.274-.581-.594-.573-.323.005-.584.271-.589.594.01.023.016,1.704-.62,4.294-.18.787-.433,1.649-.761,2.574Z" fill="#270002"></path><path d="M113.003,208.025c-.041.912-.002,2.014.176,3.264.201.095.416.196.633.281.201.085.418.173.635.248-.202-1.159-.264-2.189-.269-3.085.005-2.226.439-3.519.442-3.543.111-.307-.049-.65-.357-.759-.309-.098-.65.062-.748.359-.034.09-.429,1.245-.512,3.235Z" fill="#270002"></path><path d="M134.139,192.381c.082-.214.165-.439.235-.664.885-2.282,1.678-4.74,2.398-7.281-2.871.106-5.977.011-7.926-.557-4.121-1.18.142,6.478,5.293,8.502Z" fill="#270002"></path><path d="M130.818,199.652c.095-.178.188-.354.284-.532.793-1.466,1.523-3.039,2.22-4.717-1.817,0-3.614-.132-4.854-.475-2.778-.803-.792,3.406,2.35,5.724Z" fill="#270002"></path><path d="M139.889,170.426c-3.578-1.383-6.462-5.558-3.568-5.262c1.123.119,2.706-.049,4.325-.33l-.757,5.592Z" fill="#270002"></path><path d="M137.916,180.133c.059-.215.119-.437.165-.651.354-1.513.684-3.026.981-4.552-1.477.189-2.871.248-3.922.106-2.752-.354-.472,3.217,2.776,5.097Z" fill="#270002"></path><path d="M111.078,192.901l.142,5.616c0,.036,0,.059.013.082.01.178.023.333.047.499c1.747-.71,3.542-1.289,4.866-1.421c2.928-.271-1.182-3.841-5.068-4.776Z" fill="#270002"></path><path d="M109.141,175.178c7.606-.413,14.918,4.162,9.235,6.468-2.089.852-4.722,2.507-7.464,4.433l-1.771-10.901Z" fill="#270002"></path></svg>