<?xml version="1.0" encoding="UTF-8"?><svg id="katman_2" xmlns="http://www.w3.org/2000/svg" viewBox="0 0 26.68 32.97"><defs><style>.cls-1{fill:#fff;}.cls-2{fill:none;stroke:#fff;stroke-linecap:round;stroke-linejoin:round;stroke-width:1.43px;}.cls-3{stroke:#c17508;}.cls-3,.cls-4{fill:#ffab19;stroke-miterlimit:10;stroke-width:.5px;}.cls-4{stroke:#c98017;}.cls-5{fill:#2ca9bc;}</style></defs><g id="katman_2-2"><g id="katman_3"><g id="katman_1"><path class="cls-3" d="m26.02,8.63l-1.87-2.07c-.43-.48-.67-1.09-.67-1.73V1.28c0-.57-.46-1.03-1.03-1.03H1.46C.79.25.25.79.25,1.46v3.93c0,.29.1.56.28.78l2.25,2.77c.22.27.34.61.34.96v4.46c0,.31-.11.6-.32.83l-2.21,2.45c-.21.24-.33.55-.33.87v3.75c0,.8.65,1.46,1.45,1.46h2.02c1.04-1.82,2.99-3.04,5.23-3.04h5.74c2.23,0,4.17,1.22,5.21,3.02h2.34c.77,0,1.39-.63,1.39-1.39v-3.58c0-.48.17-.95.49-1.31l1.82-2.08c.31-.35.48-.8.48-1.27v-4.33c0-.41-.15-.8-.42-1.1h.01Z"/><path class="cls-4" d="m14.71,20.68h-5.74c-2.24,0-4.19,1.23-5.23,3.04-.5.88-.79,1.89-.79,2.98,0,3.33,2.7,6.02,6.02,6.02h5.74c3.33,0,6.02-2.7,6.02-6.02,0-1.1-.3-2.12-.81-3-1.04-1.8-2.98-3.02-5.21-3.02Zm-.81,5.35l-1.81,1.85c-.14.15-.38.15-.52,0l-1.81-1.85c-.22-.23-.06-.62.26-.62h3.62c.32,0,.48.39.26.62Z"/><path class="cls-1" d="m13.65,25.42h-3.62c-.32,0-.48.39-.26.62l1.81,1.85c.14.15.38.15.52,0l1.81-1.85c.22-.23.06-.62-.26-.62Z"/></g><circle id="secondary" class="cls-5" cx="12.78" cy="12.07" r="5.35"/><polyline id="primary" class="cls-2" points="12.78 9.57 12.78 12.43 13.78 13.55"/><path id="primary-2" class="cls-2" d="m16.56,8.29l1.07-1.07m-4.85-.5v-2.14m-2.14,0h4.28m-7.49,7.49c0,2.96,2.4,5.35,5.35,5.35s5.35-2.4,5.35-5.35-2.4-5.35-5.35-5.35-5.35,2.4-5.35,5.35Z"/></g></g></svg>